{"glyphs":{"0":{"ha":804,"x_min":40,"x_max":797,"o":"m 406 926 q 372 918 388 924 q 238 774 292 890 q 178 501 179 654 q 232 238 175 346 q 396 106 290 128 q 475 118 438 97 q 556 194 517 140 q 660 492 636 310 q 631 790 683 674 q 468 894 579 900 q 406 926 426 892 m 601 1007 q 756 847 703 963 q 797 474 825 694 q 668 115 768 258 q 540 -3 611 35 q 368 -29 458 -47 q 111 174 199 6 q 40 503 38 313 q 113 833 43 685 q 328 1049 193 1001 q 415 1064 368 1063 q 493 1063 446 1067 q 503 1063 497 1063 q 538 1061 526 1061 q 578 1044 561 1060 q 601 1007 596 1029 z "},"1":{"ha":401,"x_min":28,"x_max":396,"o":"m 43 894 q 136 982 81 940 q 235 1047 169 1006 l 236 1047 l 239 1049 q 282 1067 261 1063 q 339 1063 313 1074 q 382 1025 365 1051 q 396 988 392 1010 q 396 851 406 944 q 392 822 394 840 q 383 743 383 757 q 381 397 383 624 q 378 56 378 174 q 358 6 378 26 q 309 -14 338 -14 q 260 6 281 -14 q 240 56 240 26 q 243 400 240 175 q 246 743 246 625 q 249 789 246 760 q 253 814 250 800 l 256 840 q 258 868 257 857 q 263 901 261 886 q 218 871 238 886 q 149 807 176 839 q 102 782 131 785 q 52 797 74 779 q 28 844 31 815 q 43 894 25 872 z "},"2":{"ha":708,"x_min":40,"x_max":710,"o":"m 40 853 q 176 1008 76 939 q 385 1094 275 1078 q 601 1047 514 1114 q 710 810 701 972 q 618 542 715 668 q 525 443 582 494 q 424 357 492 411 q 421 354 422 356 q 417 350 417 351 q 410 344 413 347 q 322 269 351 297 q 251 196 278 231 q 201 110 215 153 q 272 115 231 111 q 313 118 290 117 q 429 128 418 128 q 503 133 453 129 q 515 135 511 135 q 614 140 576 140 q 662 120 642 140 q 682 72 682 100 q 662 23 682 43 q 614 3 642 3 q 529 -3 582 3 q 515 -4 525 -3 q 435 -10 463 -8 q 415 -11 432 -10 q 378 -14 397 -12 q 342 -17 358 -15 l 324 -19 q 283 -22 301 -21 q 171 -28 211 -28 q 128 -28 143 -29 q 103 -22 114 -26 q 79 -10 89 -18 q 51 47 51 13 q 144 282 54 169 q 229 371 178 325 q 322 451 261 401 q 329 457 325 453 l 332 458 l 333 460 q 338 463 336 463 q 432 544 401 515 q 510 626 481 588 q 572 803 576 713 q 519 938 567 901 q 406 958 478 969 q 260 900 331 947 q 168 800 190 853 q 131 763 157 774 q 78 763 104 751 q 41 800 51 774 q 40 853 31 826 z "},"3":{"ha":754,"x_min":-15,"x_max":753,"o":"m 51 1042 q 228 1051 94 1043 q 297 1056 269 1054 q 614 1058 522 1067 q 672 1047 649 1054 q 729 1017 708 1038 q 747 922 771 976 q 701 868 735 894 q 565 747 633 818 q 443 604 503 682 q 519 586 483 599 q 678 482 619 554 q 753 253 751 392 q 644 3 753 93 q 406 -67 547 -76 q 161 32 269 -58 q 11 292 43 132 q 22 343 6 319 q 65 372 38 367 q 117 362 93 378 q 146 318 140 346 q 250 138 168 206 q 415 69 322 76 q 557 110 501 64 q 615 251 615 157 q 571 394 614 343 q 478 456 539 436 q 392 471 439 468 q 332 471 361 474 q 325 471 328 471 q 322 471 324 471 q 256 501 279 464 q 256 575 232 538 l 256 576 q 260 582 257 579 q 271 599 264 589 q 313 660 290 628 q 467 842 386 758 q 551 924 508 886 q 306 918 471 926 q 236 914 278 917 q 56 904 100 907 q 7 924 28 904 q -15 971 -14 943 q 3 1020 -17 999 q 51 1042 22 1042 z "},"4":{"ha":778,"x_min":3,"x_max":776,"o":"m 496 438 q 497 461 496 449 q 503 735 504 624 q 500 825 501 781 q 410 722 469 789 q 401 713 408 721 l 400 711 q 278 569 318 619 q 175 425 215 493 q 217 426 193 425 q 271 431 239 428 l 297 433 q 324 436 314 435 q 368 439 351 439 q 429 438 389 439 q 496 438 472 438 m 489 1035 q 506 1061 494 1050 q 511 1068 508 1064 q 554 1098 526 1092 q 606 1089 582 1104 q 636 1046 631 1074 q 626 994 642 1018 q 625 990 626 993 q 640 736 638 874 q 635 454 642 621 l 633 446 q 692 458 664 451 q 743 451 718 465 q 776 410 768 438 q 769 358 783 383 q 728 326 754 333 q 628 307 681 313 q 618 -4 618 106 q 598 -52 618 -32 q 549 -72 578 -72 q 501 -52 521 -72 q 481 -4 481 -32 q 489 300 481 107 q 428 300 467 300 q 368 301 388 301 q 283 294 356 301 q 226 289 250 292 q 131 288 169 286 q 38 311 71 290 q 11 339 19 321 q 3 364 6 351 q 4 388 1 375 q 11 411 7 399 q 28 444 17 425 q 32 451 31 449 q 47 479 39 465 l 54 490 q 169 656 100 568 q 297 803 213 708 l 303 808 q 308 814 307 813 q 417 939 381 894 q 489 1035 458 990 z "},"5":{"ha":772,"x_min":10,"x_max":769,"o":"m 215 904 q 211 883 214 894 q 206 842 210 869 q 200 806 201 814 q 174 693 183 743 q 213 717 200 710 q 428 793 325 788 q 610 742 529 799 q 719 613 678 694 q 769 431 761 531 q 756 240 779 332 q 678 81 732 147 q 518 -31 614 -1 q 304 -32 422 -61 q 282 -28 301 -32 q 258 -22 263 -24 q 197 -6 224 -14 q 74 71 119 22 q 10 240 13 139 q 29 290 10 269 q 77 310 49 310 q 126 292 106 311 q 147 243 147 272 q 175 165 149 193 q 243 125 197 140 q 289 113 263 118 q 313 107 293 111 q 336 101 332 103 l 338 101 q 571 165 490 64 q 624 278 607 211 q 633 417 640 344 q 599 544 626 488 q 531 629 572 600 q 435 656 489 658 q 285 600 368 651 q 207 550 267 589 l 206 550 q 147 511 179 532 q 128 499 136 504 q 122 494 124 496 q 121 493 121 494 q 68 483 96 478 q 25 513 40 489 q 15 565 8 538 q 65 839 21 660 l 67 839 q 67 843 67 840 q 69 860 68 849 q 75 906 74 890 q 89 967 82 943 q 104 1000 96 986 q 124 1021 113 1013 q 165 1039 142 1036 q 660 1067 457 1060 q 710 1049 689 1068 q 731 1001 731 1029 q 713 951 732 972 q 665 929 693 931 q 215 904 481 922 z "},"6":{"ha":742,"x_min":14,"x_max":738,"o":"m 147 403 q 149 325 140 357 q 272 163 169 232 q 471 111 375 94 q 578 186 542 122 q 601 328 617 250 q 518 461 586 411 q 293 515 435 522 q 200 490 232 513 q 157 425 169 469 q 147 403 154 413 m 600 915 q 335 842 419 908 q 214 643 260 782 q 285 653 246 650 q 600 572 476 663 q 738 353 711 490 q 697 117 761 225 q 493 -25 628 -3 q 292 -2 396 -42 q 112 118 189 38 q 14 294 35 199 q 15 451 -1 364 q 47 569 25 497 q 52 586 47 571 q 58 604 57 601 q 68 638 64 624 q 250 949 131 854 q 594 1053 369 1043 q 644 1035 622 1054 q 666 988 665 1015 q 648 938 667 960 q 600 915 629 917 z "},"7":{"ha":782,"x_min":18,"x_max":783,"o":"m 89 1006 q 174 1008 104 1004 q 225 1010 186 1008 q 297 1014 264 1013 l 329 1017 q 394 1019 365 1018 q 606 1028 531 1026 q 683 1026 654 1028 q 713 1024 701 1026 q 729 1021 722 1022 q 756 1007 744 1017 q 783 958 781 989 q 781 935 783 947 q 775 921 779 928 q 769 910 772 915 q 757 892 765 903 q 749 881 754 889 q 738 867 743 874 q 728 853 733 860 l 724 846 q 721 842 722 844 q 697 810 706 822 q 261 0 399 371 q 226 -40 251 -28 q 173 -41 200 -51 q 134 -5 146 -31 q 132 47 122 21 q 583 886 276 435 q 586 890 585 889 q 401 882 517 888 q 336 879 372 881 q 181 871 210 872 q 85 868 106 867 q 38 890 57 869 q 19 939 18 911 q 40 987 19 967 q 89 1006 61 1007 z "},"8":{"ha":851,"x_min":43,"x_max":851,"o":"m 558 1032 q 594 1013 579 1028 q 697 835 682 924 q 661 667 711 749 q 603 596 639 631 q 717 551 671 578 q 851 304 864 471 q 732 58 842 158 q 497 -51 636 -29 q 238 -18 357 -72 q 49 178 104 43 q 81 369 8 275 q 229 497 125 426 q 269 524 246 508 q 207 543 235 532 q 117 590 153 563 q 49 672 71 624 q 43 881 -1 786 q 176 1010 81 960 q 347 1060 251 1047 q 518 1058 443 1074 q 558 1032 543 1053 m 464 486 q 404 447 439 469 l 393 440 q 370 426 382 433 q 354 415 358 418 q 306 383 325 396 q 190 286 219 325 q 175 231 165 254 q 294 107 210 146 q 475 85 376 69 q 639 160 574 100 q 714 315 708 222 q 703 384 718 357 q 650 431 688 411 q 554 467 614 451 q 464 486 518 475 m 490 924 q 366 924 439 935 q 239 886 293 914 q 168 822 185 858 q 175 729 150 785 q 254 672 189 696 q 432 631 304 653 q 461 653 447 642 q 544 739 519 700 q 561 811 567 776 q 496 917 553 858 q 492 924 493 919 l 490 924 z "},"9":{"ha":854,"x_min":74,"x_max":854,"o":"m 664 465 q 681 507 674 486 q 717 672 718 601 q 658 815 717 731 q 601 882 631 856 q 549 914 571 908 q 322 876 414 949 q 260 800 283 846 q 232 703 236 754 q 303 536 225 597 q 600 489 401 458 q 664 465 639 496 m 147 115 q 390 165 276 108 q 569 314 490 217 q 597 350 585 332 q 218 428 356 318 q 122 553 153 479 q 96 713 90 628 q 138 863 100 792 q 238 985 175 935 q 582 1047 382 1099 q 772 893 685 1021 q 854 675 853 774 q 807 451 856 574 q 676 228 758 329 q 453 43 579 107 q 139 -22 306 -32 q 91 1 110 -21 q 74 51 72 22 q 97 98 75 79 q 147 115 118 117 z "}," ":{"ha":304,"x_min":0,"x_max":0,"o":""},"!":{"ha":376,"x_min":15,"x_max":375,"o":"m 101 165 q 172 180 136 185 q 232 147 207 175 q 271 53 264 113 q 260 -46 276 -1 q 229 -94 249 -75 q 167 -125 203 -119 q 57 -96 99 -133 q 15 6 15 -58 q 39 95 17 51 q 97 163 61 139 q 99 165 99 164 q 101 165 100 165 m 375 1004 q 371 989 372 997 q 364 899 365 961 q 358 804 363 838 q 347 742 353 774 q 299 506 333 657 q 256 307 267 367 q 226 263 250 279 q 175 253 203 247 q 131 282 147 258 q 121 333 115 306 q 164 536 132 396 q 213 765 199 685 q 222 824 218 796 q 226 901 225 849 q 236 1017 228 976 q 243 1042 239 1029 q 275 1082 250 1068 q 327 1088 300 1096 q 368 1056 354 1081 q 375 1004 382 1032 z "},"\"":{"ha":453,"x_min":56,"x_max":451,"o":"m 192 1019 q 197 867 200 958 q 197 825 197 853 q 196 747 196 772 q 176 699 196 719 q 127 679 156 679 q 78 699 99 679 q 58 747 58 719 q 60 829 58 775 q 61 869 60 856 q 56 1001 63 951 q 70 1053 53 1031 q 116 1078 88 1075 q 167 1065 144 1082 q 192 1019 189 1047 m 451 993 q 438 849 440 938 q 438 757 438 818 q 438 717 438 731 q 417 667 438 688 q 369 647 397 647 q 320 667 340 647 q 300 717 300 688 q 300 757 300 729 q 300 851 300 819 q 318 1022 303 953 q 348 1065 324 1050 q 400 1075 372 1081 q 443 1045 428 1069 q 451 993 458 1021 z "},"#":{"ha":1099,"x_min":44,"x_max":1099,"o":"m 674 353 q 711 443 688 386 q 765 576 751 539 q 790 646 778 610 q 651 639 747 644 q 619 636 631 638 q 438 629 506 631 q 369 369 400 497 q 408 367 389 368 q 560 358 492 361 q 674 353 621 354 m 1044 954 q 999 839 1021 904 q 979 785 989 814 q 1035 782 1008 783 q 1083 758 1064 779 q 1099 708 1101 736 q 1074 660 1096 679 q 1025 644 1053 642 q 936 649 982 647 q 894 526 914 578 q 838 390 878 488 q 821 349 828 367 q 826 349 824 349 q 971 357 944 349 q 1024 354 999 367 q 1059 315 1050 342 q 1056 262 1068 288 q 1015 228 1043 236 q 826 211 968 211 q 768 213 799 211 q 735 96 747 150 q 703 53 728 68 q 651 45 679 39 q 609 76 624 51 q 600 128 594 100 q 625 217 610 169 q 551 221 590 218 q 399 229 483 224 q 339 233 371 231 q 297 1 315 117 q 270 -43 293 -26 q 219 -56 247 -60 q 174 -28 192 -51 q 163 22 157 -6 q 201 242 178 132 q 113 247 131 247 q 65 268 85 247 q 45 317 44 289 q 66 365 46 346 q 115 385 86 385 q 225 379 139 385 q 231 378 226 378 q 296 631 260 503 q 140 647 214 635 q 96 676 113 653 q 84 727 79 699 q 113 772 89 756 q 164 783 136 788 q 336 767 243 769 q 425 1033 376 897 q 459 1072 433 1060 q 512 1075 485 1085 q 551 1040 539 1065 q 554 988 564 1014 q 481 768 514 875 q 611 774 531 769 q 643 776 622 775 q 836 785 772 783 q 868 885 854 846 q 919 1013 894 957 q 958 1048 932 1038 q 1011 1046 985 1058 q 1047 1007 1038 1033 q 1044 954 1057 981 z "},"$":{"ha":864,"x_min":38,"x_max":863,"o":"m 419 582 q 426 668 425 636 q 419 854 429 731 q 403 850 411 853 q 278 792 319 831 q 254 733 247 764 q 336 631 268 679 q 419 582 371 606 m 535 389 q 531 361 532 368 q 515 236 521 288 q 501 83 506 150 q 647 90 588 76 q 725 135 706 104 q 726 142 726 138 q 725 171 728 153 q 722 203 725 183 q 721 208 722 204 q 721 214 721 213 q 719 225 719 221 q 717 247 718 239 q 717 285 715 261 l 717 286 q 717 310 717 303 q 717 314 717 313 q 711 317 715 315 q 671 339 697 326 q 575 374 642 351 q 535 389 547 383 m 554 1139 q 549 1011 547 1082 q 549 1001 549 1006 q 578 999 564 1000 q 758 922 699 986 q 777 873 778 901 q 756 825 776 844 q 706 806 735 806 q 658 828 678 807 q 563 863 633 854 q 557 863 560 863 q 564 664 567 733 q 553 529 563 617 l 553 528 q 621 504 569 522 q 725 465 692 479 q 789 432 764 447 q 840 374 826 406 q 854 321 851 350 q 854 281 856 307 q 854 257 854 263 q 858 221 854 250 q 863 182 861 199 q 863 129 865 153 q 844 68 860 93 q 668 -46 794 -21 q 499 -54 594 -61 q 517 -164 501 -128 q 515 -217 526 -190 q 478 -253 504 -243 q 425 -252 451 -264 q 389 -214 399 -240 q 361 -33 363 -149 q 190 18 269 -14 q 64 86 110 50 q 38 131 42 103 q 51 182 33 160 q 97 208 68 204 q 147 194 125 213 q 274 133 188 164 q 365 107 318 118 q 379 251 369 171 q 394 378 385 304 q 403 439 396 390 q 256 519 314 478 q 121 700 147 597 q 186 893 94 810 q 369 983 253 956 q 411 993 390 989 q 411 1008 411 1000 q 417 1156 410 1089 q 443 1201 421 1183 q 494 1215 465 1218 q 540 1189 522 1211 q 554 1139 557 1167 z "},"%":{"ha":1074,"x_min":79,"x_max":1075,"o":"m 390 950 q 379 956 385 953 q 353 957 367 956 q 299 967 333 958 q 268 974 276 972 q 243 972 251 975 q 210 932 219 963 q 210 860 197 896 q 238 828 218 833 q 265 828 249 824 q 324 853 292 832 q 385 906 375 883 q 386 908 386 907 q 388 911 386 910 q 390 924 389 917 q 390 949 392 936 l 390 950 m 460 1071 q 504 1032 486 1058 q 528 963 524 1003 q 510 847 535 899 q 456 776 490 807 q 396 736 435 760 q 196 696 286 668 q 79 815 111 722 q 79 975 51 894 q 194 1100 110 1068 q 288 1110 236 1117 q 331 1100 303 1107 q 386 1094 372 1090 q 460 1071 431 1108 m 871 339 q 818 317 842 335 q 772 240 782 289 q 786 164 764 196 q 876 122 813 128 q 921 140 907 121 q 938 221 939 169 q 911 313 935 275 q 893 333 903 328 q 885 338 889 338 q 871 339 878 338 m 985 436 q 1029 385 1010 415 q 1075 228 1071 317 q 1035 64 1079 131 q 867 -14 976 -22 q 675 83 739 -4 q 638 267 618 163 q 733 425 657 365 q 936 472 821 493 q 985 436 969 467 m 835 990 l 840 993 q 822 964 833 983 q 764 854 800 925 q 608 525 699 721 q 463 192 524 336 q 417 75 433 119 q 404 40 408 54 l 403 40 q 383 -8 403 13 q 334 -28 363 -28 q 285 -8 306 -28 q 265 40 265 13 q 288 122 265 64 q 336 244 304 169 q 483 582 397 390 q 642 915 574 781 q 703 1032 678 989 q 726 1071 715 1056 q 758 1106 743 1096 q 811 1116 783 1122 q 854 1086 839 1110 q 864 1035 869 1063 q 835 990 858 1007 z "},"&":{"ha":885,"x_min":51,"x_max":882,"o":"m 307 490 q 226 403 257 444 q 190 243 164 317 q 240 192 200 217 q 339 156 281 168 q 515 161 447 133 q 364 382 433 263 q 307 490 332 438 m 574 915 l 572 917 q 522 924 554 925 q 464 915 490 924 q 381 876 411 899 q 358 835 364 864 q 363 736 350 796 q 368 717 365 728 q 369 718 368 718 q 406 746 397 740 q 471 797 447 778 q 557 882 535 850 q 574 913 569 900 q 574 915 574 914 m 792 -47 q 676 -3 740 -47 q 610 56 644 21 q 607 56 608 56 q 476 12 557 21 q 311 21 394 3 q 164 78 226 39 q 61 197 86 126 q 51 351 33 274 q 115 483 67 417 q 217 594 154 536 q 251 625 233 610 q 229 708 238 668 q 222 860 210 794 q 300 988 239 943 q 421 1046 347 1022 q 528 1062 469 1063 q 629 1042 586 1061 q 710 943 697 1010 q 669 804 721 879 q 558 692 638 756 q 489 638 532 669 l 453 610 q 417 582 431 593 l 417 581 q 483 451 444 518 q 618 253 544 344 q 664 324 642 285 q 751 529 711 406 q 785 569 760 556 q 837 573 810 582 q 877 539 864 564 q 882 486 890 514 q 783 256 838 350 q 711 149 749 196 q 757 110 736 125 q 786 92 774 97 l 792 90 q 840 70 819 90 q 860 22 860 50 q 840 -27 860 -7 q 792 -47 819 -47 z "},"'":{"ha":349,"x_min":192,"x_max":346,"o":"m 346 1046 q 329 935 331 1003 q 342 832 328 868 q 341 780 353 806 q 303 744 329 754 q 250 745 276 733 q 214 783 224 757 q 192 934 192 843 q 215 1090 193 1025 q 251 1131 225 1118 q 303 1133 276 1143 q 342 1098 329 1124 q 346 1046 354 1072 z "},"(":{"ha":492,"x_min":68,"x_max":492,"o":"m 465 1001 q 283 701 353 867 q 206 375 214 536 q 260 49 194 196 q 464 -197 325 -97 q 492 -242 488 -214 q 479 -294 496 -271 q 435 -321 463 -317 q 383 -308 407 -325 q 129 6 210 -183 q 68 382 56 178 q 156 753 78 567 q 360 1090 233 939 q 408 1115 379 1113 q 458 1099 436 1117 q 481 1052 479 1081 q 465 1001 483 1024 z "},")":{"ha":542,"x_min":49,"x_max":540,"o":"m 160 1092 q 334 889 251 1021 q 472 596 417 757 q 540 278 529 428 q 510 17 551 129 q 382 -144 478 -67 q 226 -249 325 -192 q 174 -256 201 -262 q 133 -224 147 -249 q 125 -172 118 -200 q 157 -131 132 -144 q 294 -39 247 -78 q 382 67 363 17 q 403 277 414 149 q 342 551 392 406 q 222 810 293 693 q 76 983 150 926 q 49 1028 53 1000 q 63 1079 46 1057 q 109 1106 81 1101 q 160 1092 138 1110 z "},"*":{"ha":624,"x_min":28,"x_max":624,"o":"m 550 797 q 444 772 500 801 q 449 768 446 771 q 469 752 450 767 q 492 733 488 738 q 596 651 549 688 q 624 606 619 635 q 611 555 628 578 q 566 528 594 532 q 515 540 538 524 q 406 626 464 578 q 381 646 400 631 q 361 663 363 661 q 331 688 344 676 q 281 638 308 667 q 251 608 278 635 q 218 574 225 581 q 169 553 197 553 q 120 573 140 553 q 100 622 100 593 q 121 671 100 650 q 153 703 126 676 q 183 735 179 731 q 214 765 200 751 q 182 782 199 774 q 69 829 133 806 q 31 865 43 839 q 28 917 18 890 q 63 956 38 943 q 117 958 89 968 q 242 907 186 933 q 261 896 251 901 q 264 929 263 907 q 265 1006 265 981 q 260 1074 265 1043 q 270 1125 254 1101 q 314 1154 286 1149 q 365 1144 342 1160 q 394 1100 389 1128 q 403 1007 403 1057 q 400 922 403 978 q 400 903 400 910 q 558 935 479 940 q 606 912 586 933 q 623 863 625 890 q 600 815 621 835 q 550 797 579 796 z "},"+":{"ha":690,"x_min":13,"x_max":690,"o":"m 388 710 l 388 685 q 388 507 388 563 q 494 493 425 503 q 626 478 583 482 q 629 478 628 478 q 675 453 657 475 q 690 402 693 431 q 665 356 688 374 q 615 340 643 338 q 614 342 614 340 q 478 357 568 346 q 393 367 425 364 q 410 200 399 278 q 397 149 414 172 q 351 122 379 126 q 301 135 324 118 q 274 181 278 153 q 256 379 261 272 q 90 374 165 383 q 40 387 63 369 q 13 432 17 404 q 27 483 10 460 q 72 510 44 506 q 250 517 154 521 q 250 685 250 571 l 250 710 q 270 758 250 738 q 319 778 290 778 q 367 758 347 778 q 388 710 388 738 z "},",":{"ha":276,"x_min":72,"x_max":275,"o":"m 267 35 q 218 -90 242 -6 q 214 -107 217 -97 q 213 -114 214 -110 q 210 -122 211 -117 q 204 -142 207 -135 q 172 -183 197 -169 q 120 -190 147 -197 q 79 -157 93 -182 q 72 -104 65 -132 q 78 -86 74 -97 l 79 -79 q 82 -71 81 -74 q 86 -53 85 -61 q 150 107 115 49 q 192 138 165 131 q 244 130 219 144 q 275 88 268 115 q 267 35 282 60 z "},"-":{"ha":513,"x_min":60,"x_max":514,"o":"m 128 426 q 235 429 171 426 q 283 432 250 431 q 444 438 390 438 q 494 417 474 438 q 514 369 514 397 q 494 320 514 340 q 444 300 474 300 q 290 294 393 300 q 240 292 257 293 q 128 289 175 289 q 80 309 100 289 q 60 358 60 329 q 80 406 60 386 q 128 426 100 426 z "},".":{"ha":278,"x_min":69,"x_max":278,"o":"m 208 143 q 225 136 217 140 q 268 88 254 118 q 278 25 282 58 q 232 -57 271 -24 q 189 -83 213 -76 q 117 -76 150 -96 q 75 -17 85 -57 q 70 44 67 8 q 89 101 74 79 q 100 117 90 106 q 110 131 110 129 q 156 158 128 153 q 207 146 183 163 q 208 143 208 144 z "},"/":{"ha":715,"x_min":97,"x_max":717,"o":"m 700 992 q 422 553 561 825 q 231 69 283 281 q 199 27 224 42 q 147 19 175 13 q 105 51 119 26 q 97 103 90 75 q 300 615 154 329 q 594 1081 446 901 q 642 1105 614 1103 q 692 1089 671 1107 q 716 1042 714 1071 q 700 992 718 1014 z "},":":{"ha":274,"x_min":99,"x_max":271,"o":"m 242 692 q 236 617 233 660 q 218 567 238 588 q 170 544 199 546 q 121 563 142 543 q 99 610 100 582 q 110 726 96 674 q 141 769 117 754 q 193 776 165 783 q 235 744 221 768 q 242 692 250 719 m 265 247 q 265 242 265 244 l 265 239 l 265 238 q 267 217 267 222 q 271 201 268 208 q 267 149 279 174 q 227 115 254 124 q 174 118 200 106 q 140 158 149 131 q 131 199 133 178 q 128 232 129 211 q 128 235 128 233 q 128 238 128 236 q 128 242 128 240 q 146 292 126 271 q 194 313 165 313 q 243 294 222 314 q 265 247 264 275 z "},";":{"ha":282,"x_min":50,"x_max":281,"o":"m 260 668 q 253 644 253 650 q 254 635 253 642 q 257 614 256 619 q 257 607 257 611 q 243 557 261 579 q 197 531 225 535 q 146 546 168 528 q 121 592 124 564 q 121 597 121 594 q 119 604 119 600 q 119 613 119 608 q 118 618 118 617 q 115 640 115 631 q 129 713 115 672 q 165 753 139 740 q 217 756 190 765 q 256 721 243 746 q 260 668 268 696 m 272 38 q 219 -60 253 7 l 218 -61 q 176 -140 192 -114 q 135 -172 163 -164 q 83 -165 107 -179 q 51 -124 58 -151 q 57 -72 43 -96 q 96 1 71 -47 l 97 3 q 156 110 133 75 q 199 141 171 135 q 250 132 226 147 q 281 89 274 117 q 272 38 288 61 z "},"<":{"ha":447,"x_min":26,"x_max":449,"o":"m 429 656 q 313 543 372 597 q 222 465 279 514 q 168 418 181 431 q 189 400 176 411 q 272 340 213 382 q 301 320 276 338 q 333 299 326 303 q 406 249 374 271 q 434 203 429 232 q 422 152 439 175 q 378 124 406 129 q 326 136 350 119 q 256 185 294 158 q 224 208 249 190 q 194 226 199 225 q 104 292 131 271 q 43 353 61 325 q 26 446 13 397 q 71 515 35 481 q 135 571 88 533 q 221 646 189 618 q 331 751 278 696 q 378 772 350 771 q 428 753 407 772 q 449 705 449 733 q 429 656 449 676 z "},"=":{"ha":600,"x_min":56,"x_max":600,"o":"m 117 660 q 318 660 204 668 q 460 646 367 657 q 539 638 514 640 q 585 613 568 635 q 600 562 603 590 q 576 515 597 533 q 525 500 554 497 q 444 510 500 503 q 308 522 354 519 q 131 522 206 531 q 81 538 103 519 q 56 584 58 556 q 71 635 53 613 q 117 660 89 657 m 138 288 q 243 303 185 299 q 344 306 283 306 q 369 306 353 306 q 465 308 433 307 q 515 291 493 310 q 538 244 536 272 q 519 194 539 215 q 472 171 500 172 q 369 168 438 169 q 346 168 354 168 q 168 153 229 167 q 116 162 140 147 q 85 204 92 176 q 94 256 79 232 q 138 288 110 281 z "},">":{"ha":499,"x_min":24,"x_max":499,"o":"m 135 794 q 151 783 138 793 q 179 760 164 772 q 199 744 194 749 q 301 663 257 699 q 328 640 315 651 q 436 543 397 582 q 475 500 461 518 q 490 474 485 486 q 499 426 501 450 q 478 374 494 400 q 447 335 467 354 q 369 269 419 307 q 326 238 351 256 l 286 208 q 250 182 264 193 q 206 146 217 157 q 159 124 188 125 q 109 141 131 122 q 86 188 88 160 q 104 238 85 217 q 168 293 124 260 q 207 321 183 304 q 247 349 238 343 q 288 379 271 367 q 349 431 328 410 q 351 433 350 432 q 339 446 346 439 q 239 535 304 481 q 214 557 228 546 q 114 636 171 592 q 94 652 110 640 q 66 674 79 664 q 49 688 53 685 q 24 734 26 706 q 39 785 21 763 q 85 810 57 807 q 135 794 113 813 z "},"?":{"ha":651,"x_min":25,"x_max":650,"o":"m 242 135 q 269 94 261 119 q 265 14 283 56 q 211 -43 247 -25 q 117 -47 165 -67 q 53 22 65 -26 q 64 103 42 63 q 115 155 82 135 q 186 171 149 175 q 242 135 224 168 m 54 958 q 411 1097 256 1101 q 579 1025 515 1096 q 650 822 643 954 q 596 564 660 665 q 444 440 543 479 q 333 415 393 421 q 317 414 325 414 q 310 361 314 397 l 299 285 q 296 258 297 269 q 294 249 294 250 q 267 203 290 221 q 217 190 244 186 q 172 216 189 193 q 158 267 154 239 q 160 276 158 269 q 163 303 161 288 q 174 381 168 338 l 183 458 q 188 483 186 474 q 189 493 189 492 q 215 539 193 522 q 265 553 238 556 l 267 553 q 272 551 269 551 q 322 553 296 550 q 394 569 361 556 q 479 638 450 590 q 513 815 519 701 q 476 933 508 899 q 408 960 453 960 q 133 846 299 963 q 82 834 110 829 q 38 862 54 839 q 26 913 21 885 q 54 958 31 942 z "},"@":{"ha":1060,"x_min":57,"x_max":1056,"o":"m 781 632 q 782 601 782 617 q 792 558 785 576 q 810 532 799 540 q 853 532 826 519 q 913 600 893 550 q 908 747 936 665 q 743 897 872 850 q 397 857 553 965 q 271 722 325 806 q 190 532 217 638 q 240 244 150 368 q 482 82 321 133 q 769 67 636 33 q 925 190 894 99 q 960 230 935 217 q 1012 234 985 243 q 1052 199 1039 225 q 1056 147 1065 174 q 963 12 1029 67 q 803 -67 897 -43 q 440 -49 632 -110 q 129 164 238 15 q 57 565 1 339 q 158 799 90 694 q 319 969 225 904 q 542 1056 422 1042 q 789 1026 661 1071 q 1038 792 981 958 q 1040 551 1083 663 q 911 407 1001 449 q 815 389 865 385 q 726 422 765 393 q 713 433 719 428 q 676 404 699 421 q 673 401 675 403 q 669 397 671 400 l 667 396 q 647 382 654 388 q 539 324 593 336 q 429 336 479 310 q 363 406 385 360 q 343 508 340 453 q 454 699 351 625 q 754 768 567 781 q 802 745 783 767 q 818 696 821 724 q 781 638 817 656 q 781 632 781 635 m 644 628 q 535 588 578 618 q 481 500 485 551 q 485 468 479 482 q 494 458 489 460 q 508 457 499 456 q 558 486 531 463 q 583 507 568 494 l 586 508 q 590 511 588 510 q 593 514 592 513 q 633 553 625 538 q 644 597 644 571 q 644 626 644 611 l 644 628 z "},"A":{"ha":861,"x_min":-10,"x_max":861,"o":"m 235 397 q 281 399 254 397 q 506 397 431 400 q 689 381 606 393 q 628 711 654 632 q 561 853 596 807 q 536 876 549 869 q 525 881 529 881 q 482 857 508 882 q 399 744 442 821 q 235 397 300 571 m 24 29 q 47 263 14 126 q 6 287 22 267 q -10 332 -10 307 q 13 381 -8 361 q 63 399 33 400 q 88 397 75 397 q 103 439 94 418 q 279 811 172 625 q 389 958 333 907 q 532 1018 458 1022 q 669 936 610 1014 q 758 754 719 872 q 826 389 789 661 q 861 44 861 135 q 841 -3 861 17 q 792 -24 821 -24 q 744 -3 764 -24 q 724 44 724 17 q 707 238 724 93 q 501 260 617 256 q 283 261 429 263 q 189 260 224 260 q 161 44 151 126 q 147 -6 164 17 q 101 -31 129 -28 q 50 -17 72 -35 q 24 29 28 1 z "},"B":{"ha":817,"x_min":43,"x_max":818,"o":"m 279 435 q 208 415 250 428 q 185 413 197 413 q 183 289 183 358 q 183 171 183 250 q 185 68 185 100 q 244 67 211 65 q 446 101 347 71 q 621 190 558 135 q 681 324 683 247 q 633 431 676 399 q 514 465 593 461 q 347 450 443 468 q 319 444 333 447 q 279 435 300 439 m 247 568 q 289 578 268 574 q 622 729 525 636 q 672 810 665 769 q 661 874 679 842 q 594 941 640 911 q 489 983 549 971 q 228 935 349 1013 q 211 926 221 929 q 206 793 211 868 q 199 688 203 753 q 190 568 192 599 q 189 556 190 563 q 247 568 219 563 m 182 1067 q 518 1118 339 1156 q 676 1052 606 1099 q 782 940 746 1006 q 807 781 824 864 q 717 629 790 699 q 651 578 688 601 q 717 540 688 563 q 818 329 811 468 q 713 89 824 189 q 485 -31 628 13 q 250 -71 369 -65 q 76 -42 126 -75 q 49 -7 57 -29 q 43 25 42 8 q 46 43 43 33 q 47 47 46 44 l 47 49 q 46 171 47 88 q 46 289 46 249 q 53 578 46 460 q 61 697 54 608 q 68 801 67 763 q 74 1008 76 928 q 92 1057 72 1036 q 140 1079 111 1078 q 182 1067 163 1081 z "},"C":{"ha":889,"x_min":43,"x_max":883,"o":"m 732 781 q 749 925 761 874 q 746 936 747 932 q 431 831 581 936 q 214 574 286 729 q 176 301 142 422 q 364 119 213 174 q 528 90 456 89 q 636 115 589 92 q 751 240 711 153 q 790 276 763 265 q 842 274 817 286 q 878 236 868 263 q 876 183 888 210 q 811 81 850 126 q 697 -8 763 24 q 319 -10 539 -86 q 141 98 211 28 q 43 264 71 168 q 89 632 -4 435 q 351 943 178 821 q 757 1074 543 1078 q 843 1036 807 1072 q 883 956 872 1006 q 863 740 903 868 q 829 699 854 713 q 777 694 804 686 q 737 728 750 703 q 732 781 724 754 z "},"D":{"ha":904,"x_min":32,"x_max":894,"o":"m 169 85 q 236 79 197 79 q 444 99 340 76 q 650 186 569 128 q 760 356 739 253 q 735 604 785 476 q 594 808 688 724 q 418 901 506 890 q 281 850 335 911 q 247 828 267 833 q 193 439 214 624 q 169 171 172 271 q 169 85 167 115 m 203 967 q 435 1038 301 1054 q 686 910 565 1021 q 863 654 804 804 q 894 329 928 489 q 732 76 864 175 q 475 -35 629 0 q 232 -58 354 -62 q 143 -51 181 -57 q 107 -42 122 -47 q 68 -21 83 -35 q 40 29 49 -3 q 32 72 35 47 q 32 176 29 113 q 56 456 36 282 q 121 911 83 686 q 149 956 125 939 q 200 967 172 972 q 203 967 201 967 z "},"E":{"ha":919,"x_min":0,"x_max":919,"o":"m 844 904 q 486 910 722 913 q 267 903 351 910 q 193 894 221 900 q 186 893 189 894 q 185 886 185 890 q 165 792 175 850 q 139 533 144 668 q 340 568 217 542 q 400 582 360 572 q 535 610 489 601 q 674 632 611 625 q 724 617 701 635 q 750 572 747 600 q 735 521 753 543 q 689 496 718 499 q 429 447 603 485 q 369 433 389 439 q 138 394 228 404 q 156 228 140 296 q 186 147 168 175 q 208 128 197 129 q 551 126 364 97 q 649 144 593 133 q 699 154 669 149 q 722 158 700 154 q 750 164 744 163 q 839 182 803 175 q 890 171 867 188 q 919 126 914 154 q 908 75 925 99 q 864 47 892 51 q 778 29 829 40 q 749 24 771 28 q 726 19 728 19 q 675 8 696 13 q 574 -10 617 -3 q 182 -7 361 -42 q 72 71 115 6 q 22 197 40 119 q 0 511 -7 319 q 29 814 6 667 q 51 921 40 879 q 64 960 58 944 q 96 1004 76 990 q 169 1031 119 1022 q 257 1040 203 1036 q 485 1047 346 1047 q 853 1042 726 1050 q 899 1019 881 1040 q 917 969 918 997 q 894 922 915 940 q 844 904 872 903 z "},"F":{"ha":863,"x_min":43,"x_max":864,"o":"m 796 918 q 746 917 769 917 q 371 897 475 908 q 211 860 251 885 q 182 801 188 843 q 181 728 179 775 q 183 676 181 707 q 184 659 183 672 q 185 633 185 646 q 186 618 186 619 q 188 583 188 599 q 192 536 189 560 q 232 533 208 535 q 378 544 292 533 q 643 596 539 565 q 696 590 671 604 q 729 549 721 576 q 724 497 738 522 q 683 464 710 472 q 394 408 568 431 q 232 396 300 396 q 204 397 217 397 q 211 311 208 346 q 208 32 225 144 q 181 -13 204 4 q 131 -26 158 -31 q 85 1 103 -22 q 72 51 68 24 q 75 301 86 149 q 65 407 72 338 q 51 576 54 521 q 49 611 50 592 q 48 625 49 613 q 47 651 47 638 q 46 669 46 664 q 43 722 43 701 q 46 818 42 781 q 138 975 58 925 q 356 1033 204 1018 q 742 1053 467 1046 q 793 1056 765 1054 q 842 1036 821 1056 q 863 988 863 1017 q 844 939 864 960 q 796 918 825 918 z "},"G":{"ha":863,"x_min":38,"x_max":861,"o":"m 742 794 q 485 864 619 897 q 267 703 358 832 q 175 428 174 574 q 296 178 178 275 q 422 113 344 138 q 575 96 507 85 q 683 168 646 108 q 724 410 733 249 l 722 410 q 708 417 717 413 q 603 435 672 429 q 468 435 547 438 q 460 435 465 435 q 450 435 454 435 l 444 435 q 428 435 433 435 q 378 455 399 435 q 358 503 358 475 q 378 552 358 532 q 428 572 399 572 q 440 572 431 572 l 444 572 q 456 572 450 572 q 464 572 461 572 q 611 571 550 575 q 756 546 701 565 q 822 507 797 531 q 861 425 858 472 q 800 96 874 215 q 599 -39 731 -17 q 379 -18 497 -57 q 208 72 278 15 q 38 426 42 210 q 154 783 35 617 q 290 921 213 865 q 451 997 367 976 q 831 900 654 1049 q 854 853 851 882 q 838 803 857 825 q 792 778 819 781 q 742 794 764 776 z "},"H":{"ha":857,"x_min":56,"x_max":856,"o":"m 801 947 q 796 721 801 886 q 789 522 790 594 q 800 272 788 374 q 850 86 815 153 q 856 34 864 61 q 822 -6 847 7 q 769 -11 796 -19 q 729 22 742 -3 q 664 256 682 111 q 651 450 653 340 q 201 396 458 438 q 193 38 193 188 q 173 -12 193 8 q 124 -32 153 -32 q 76 -12 96 -32 q 56 38 56 8 q 72 579 56 218 q 74 604 72 596 q 88 979 85 847 q 108 1028 88 1008 q 158 1047 129 1047 q 206 1026 186 1046 q 225 976 225 1006 q 211 597 222 843 q 210 572 210 588 q 208 536 208 553 q 653 588 458 575 q 658 726 654 639 q 664 944 664 889 q 683 994 664 974 q 731 1015 703 1014 q 781 995 760 1015 q 801 947 801 975 z "},"I":{"ha":532,"x_min":-35,"x_max":533,"o":"m 36 1024 q 189 1026 86 1022 q 201 1026 197 1026 q 407 1025 335 1032 q 454 1000 436 1022 q 469 949 472 978 q 444 903 467 921 q 393 888 422 885 q 310 892 356 892 q 324 594 319 761 q 328 335 325 508 q 332 71 329 154 q 347 69 339 71 q 464 68 426 68 q 513 48 493 68 q 533 -1 533 28 q 513 -49 533 -29 q 464 -69 493 -69 q 343 -68 424 -69 q 278 -65 300 -67 q 56 -76 139 -62 q 4 -65 28 -82 q -24 -21 -19 -49 q -12 31 -29 7 q 32 58 4 54 q 194 72 104 71 q 190 333 192 154 q 186 592 188 506 q 172 888 182 758 q 31 886 83 885 q -17 908 3 888 q -35 958 -36 929 q -12 1006 -33 986 q 36 1024 8 1025 z "},"J":{"ha":764,"x_min":-31,"x_max":764,"o":"m 103 293 q 228 139 132 171 q 468 169 329 104 q 574 275 544 206 q 593 446 601 343 q 544 668 585 540 q 457 903 514 763 q 453 915 454 908 l 451 915 q 307 911 367 907 q 260 933 279 913 q 243 983 242 954 q 265 1031 244 1011 q 315 1047 286 1050 q 439 1051 364 1044 q 485 1056 454 1053 q 590 1065 556 1063 q 703 1063 653 1068 q 749 1038 731 1060 q 764 988 767 1015 q 739 942 761 960 q 689 926 717 924 q 597 928 649 929 l 596 928 q 675 710 646 801 q 729 458 719 568 q 700 222 742 321 q 528 46 650 104 q 183 8 338 -44 q 47 101 101 36 q -31 261 -8 165 q -23 313 -37 289 q 19 344 -8 338 q 72 335 47 350 q 103 293 96 321 z "},"K":{"ha":801,"x_min":15,"x_max":800,"o":"m 768 864 q 686 815 738 844 q 677 810 683 814 q 664 803 671 806 l 658 799 q 471 683 532 726 q 317 556 375 619 q 264 503 293 529 q 218 464 250 490 q 185 435 194 443 q 179 428 182 431 q 229 386 193 411 q 441 257 310 329 q 675 142 572 185 q 711 104 700 131 q 711 52 722 78 q 674 15 700 26 q 621 15 647 4 q 374 137 513 61 q 150 274 236 213 l 149 275 q 163 49 150 153 q 149 -1 167 21 q 103 -27 132 -24 q 53 -13 75 -31 q 26 32 31 4 q 15 519 3 225 q 24 692 18 578 q 36 963 35 875 q 58 1010 38 990 q 108 1030 79 1031 q 156 1008 136 1029 q 174 958 175 988 q 161 683 172 869 q 157 592 158 625 q 215 649 192 622 q 393 797 285 724 q 589 918 458 843 q 596 922 590 918 q 608 929 601 925 q 618 935 615 933 q 697 982 668 964 q 750 989 722 996 q 792 958 778 982 q 800 906 807 933 q 768 864 793 878 z "},"L":{"ha":782,"x_min":18,"x_max":783,"o":"m 167 958 q 176 804 179 900 q 165 628 175 753 q 158 525 161 563 q 176 221 146 319 q 226 133 194 164 q 311 93 258 101 q 528 81 385 82 q 544 81 533 81 q 719 75 661 81 q 766 52 747 74 q 783 2 785 31 q 759 -45 781 -26 q 708 -61 738 -64 q 543 -57 656 -57 q 526 -57 533 -57 q 290 -43 374 -56 q 44 182 104 -14 q 18 353 22 253 q 21 532 15 428 q 29 639 24 571 q 39 807 38 760 q 32 929 42 886 q 42 981 26 957 q 85 1010 57 1004 q 137 1001 113 1017 q 167 958 161 986 z "},"M":{"ha":1032,"x_min":-40,"x_max":1029,"o":"m -40 28 q -19 238 -46 76 q 38 553 1 375 q 101 846 72 726 q 128 942 117 908 q 140 975 135 964 q 153 996 146 988 q 172 1013 161 1007 q 228 1021 199 1028 q 258 1001 244 1015 q 269 990 264 997 q 286 968 276 982 q 326 903 301 944 q 433 717 367 835 q 442 700 438 708 q 525 549 481 631 q 574 688 551 622 q 579 700 576 693 q 649 892 622 824 q 674 956 665 933 q 683 976 679 969 q 693 992 688 985 q 715 1010 703 1003 q 757 1018 735 1021 q 803 992 785 1014 q 814 969 810 982 q 819 956 817 964 q 829 921 824 943 q 856 814 839 883 q 925 503 878 714 q 928 493 926 497 q 943 422 929 483 q 960 344 957 360 q 990 210 978 261 q 1029 39 1021 74 q 1024 -13 1038 11 q 982 -45 1010 -37 q 930 -39 954 -53 q 897 3 906 -25 q 856 181 886 40 q 825 315 844 232 q 808 392 822 329 q 793 463 794 454 q 790 474 792 471 q 735 726 754 639 q 708 654 722 693 q 704 642 706 647 q 635 446 672 553 q 613 381 622 413 q 606 363 608 371 q 604 358 604 360 l 604 357 q 544 310 589 314 q 478 346 499 307 q 476 349 478 347 q 475 353 476 350 q 465 371 469 361 q 429 436 447 403 q 322 633 371 543 q 313 650 317 642 q 231 794 265 736 q 172 525 203 682 q 115 215 138 351 q 96 40 93 72 q 81 -10 99 13 q 34 -34 63 -32 q -17 -18 6 -36 q -40 28 -39 0 z "},"N":{"ha":861,"x_min":-1,"x_max":863,"o":"m 42 13 q 22 367 29 144 q 19 522 22 414 q 13 758 17 683 q 3 911 8 854 q -1 939 -3 925 q 13 988 -4 967 q 57 1013 31 1008 q 108 999 85 1017 q 135 954 131 982 q 149 932 142 943 q 211 831 179 883 q 400 526 313 664 q 421 494 411 510 q 668 125 600 211 q 721 68 699 89 q 725 133 725 94 q 721 218 725 168 q 720 231 721 219 q 719 252 719 242 q 718 265 718 263 q 714 324 715 308 q 710 396 713 363 q 696 568 703 492 q 640 864 672 801 q 635 916 626 889 q 669 956 644 943 q 722 961 694 969 q 763 928 749 953 q 832 582 807 842 q 847 406 840 503 q 851 331 849 371 l 854 274 q 856 261 856 271 q 858 240 857 251 q 858 228 858 229 q 863 133 863 174 q 854 35 863 75 q 840 -14 849 7 q 806 -62 826 -44 q 738 -86 775 -86 q 672 -67 706 -86 q 561 40 624 -39 q 304 421 488 132 q 285 453 294 436 q 154 661 222 549 q 157 525 156 613 q 160 371 160 418 q 178 26 165 153 q 163 -24 181 -3 q 116 -49 144 -46 q 66 -33 88 -51 q 42 13 44 -15 z "},"O":{"ha":924,"x_min":33,"x_max":922,"o":"m 714 939 q 738 922 728 933 q 884 690 835 821 q 922 431 933 560 q 830 178 911 288 q 608 10 749 68 q 424 -32 517 -28 q 225 14 308 -36 q 33 318 67 110 q 83 686 6 501 q 315 961 164 879 q 694 954 494 1058 q 714 939 706 949 m 631 832 q 381 840 496 903 q 210 632 272 781 q 169 340 147 483 q 296 132 192 194 q 418 106 344 103 q 556 138 486 110 q 719 259 660 181 q 785 442 778 338 q 754 644 793 542 q 638 828 715 746 l 636 829 q 631 832 633 831 z "},"P":{"ha":886,"x_min":11,"x_max":883,"o":"m 265 340 q 268 240 268 275 q 267 147 268 206 q 265 67 265 89 q 241 19 263 38 q 191 3 219 1 q 144 28 163 6 q 129 78 126 50 q 115 474 143 244 q 14 879 83 736 q 12 931 3 904 q 46 971 21 958 q 94 975 69 982 q 126 981 118 979 q 193 992 164 988 q 331 1013 269 1004 q 617 1013 524 1036 q 753 944 686 997 q 853 828 821 892 q 883 663 897 740 q 799 525 868 586 q 511 392 706 444 q 360 357 443 372 q 265 340 322 350 m 175 850 q 251 490 226 701 q 254 478 253 483 q 335 492 299 485 q 475 524 413 507 q 708 629 639 568 q 748 690 742 660 q 732 765 754 721 q 669 835 713 801 q 585 879 625 869 q 347 875 515 896 q 215 857 289 868 q 175 850 196 853 z "},"Q":{"ha":989,"x_min":24,"x_max":981,"o":"m 533 1042 q 699 1004 618 1046 q 825 906 765 969 q 965 679 919 804 q 981 450 1006 568 q 888 253 958 347 q 821 175 858 213 q 904 121 860 149 q 934 78 928 106 q 925 26 940 50 q 882 -5 910 1 q 829 4 854 -11 q 708 85 764 46 q 556 14 633 36 q 351 5 447 -17 q 179 97 254 26 q 73 248 114 158 q 24 439 32 338 q 124 825 4 660 q 525 1042 260 1015 q 533 1042 529 1042 m 492 456 q 676 279 558 372 q 707 257 692 268 q 778 335 747 293 q 836 633 889 486 q 724 811 800 731 q 538 904 633 908 l 536 904 q 235 744 335 883 q 160 451 146 621 q 197 308 167 375 q 272 197 226 240 q 517 146 374 104 q 588 175 551 156 q 385 371 460 275 q 370 421 367 393 q 396 467 374 449 q 446 481 418 485 q 492 456 474 478 z "},"R":{"ha":846,"x_min":50,"x_max":847,"o":"m 196 446 q 199 446 197 446 q 561 556 421 474 q 682 692 675 624 q 667 742 683 717 q 585 806 642 776 q 224 893 458 871 q 219 747 224 828 q 206 560 215 685 q 200 494 201 517 q 196 446 197 468 m 146 1036 q 647 928 474 1019 q 778 821 735 883 q 818 679 825 756 q 632 438 806 542 q 432 354 546 388 q 824 74 624 249 q 847 26 844 54 q 830 -24 849 -3 q 783 -47 811 -44 q 733 -31 754 -49 q 447 185 590 94 q 194 308 303 276 q 189 311 192 310 q 188 250 188 281 q 204 18 186 121 q 193 -33 210 -10 q 149 -60 176 -56 q 97 -49 121 -65 q 69 -6 74 -33 q 50 251 49 110 q 63 506 50 350 q 68 571 64 528 q 82 756 78 694 q 85 929 88 853 q 75 971 74 949 q 97 1018 76 999 q 146 1036 118 1038 z "},"S":{"ha":846,"x_min":22,"x_max":844,"o":"m 142 140 q 263 88 176 104 q 457 85 357 68 q 629 153 563 103 q 708 283 697 204 q 704 303 710 294 q 664 332 693 317 q 581 365 633 349 q 471 394 544 376 q 447 401 453 400 q 318 438 364 422 q 199 489 244 461 q 106 579 135 526 q 89 719 71 643 q 213 892 111 814 q 435 992 314 971 q 671 949 574 1015 q 803 694 783 871 q 788 644 806 665 q 742 619 769 622 q 692 633 714 615 q 665 679 669 651 q 593 835 654 793 q 458 856 542 871 q 301 786 374 842 q 224 689 235 736 q 226 646 217 663 q 268 607 236 626 q 361 568 303 588 q 482 535 401 554 l 506 528 q 621 496 582 508 q 728 454 686 476 q 815 383 786 424 q 844 264 853 331 q 713 43 826 129 q 479 -50 618 -28 q 227 -47 350 -72 q 42 46 104 -21 q 23 94 22 65 q 44 142 24 122 q 94 162 65 163 q 142 140 122 161 z "},"T":{"ha":894,"x_min":24,"x_max":894,"o":"m 99 999 q 575 996 282 979 q 664 1007 604 997 q 678 1010 674 1008 q 832 1019 771 1024 q 878 995 860 1017 q 894 945 897 974 q 870 898 892 917 q 821 882 849 879 q 700 874 776 886 q 686 871 696 872 q 582 858 619 860 q 578 858 579 858 q 607 592 599 743 q 603 135 618 385 q 596 49 600 90 q 594 25 594 36 q 593 17 593 19 q 568 -29 590 -11 q 518 -44 546 -47 q 472 -20 490 -42 q 457 31 454 1 l 457 32 q 457 38 457 35 q 460 60 458 49 q 465 143 463 100 q 469 585 479 385 q 439 853 461 740 q 85 861 236 846 q 38 887 56 865 q 24 937 21 908 q 49 983 26 965 q 99 999 71 1001 z "},"U":{"ha":915,"x_min":32,"x_max":904,"o":"m 204 893 q 185 738 200 842 q 168 619 172 660 q 172 389 153 481 q 243 251 188 314 q 375 160 299 189 q 519 144 450 131 q 646 222 593 158 q 768 553 740 335 q 767 936 790 728 q 782 986 764 964 q 828 1011 800 1008 q 878 997 856 1014 q 904 951 900 979 q 904 535 929 728 q 751 133 871 278 q 547 10 668 33 q 325 31 439 -12 q 138 163 217 74 q 38 361 60 251 q 32 635 14 474 q 49 757 36 676 q 67 906 63 858 q 92 951 69 933 q 142 967 114 969 q 189 943 171 965 q 204 893 207 921 z "},"V":{"ha":764,"x_min":43,"x_max":763,"o":"m 115 968 q 162 947 143 967 q 181 899 181 926 q 182 892 181 897 q 189 864 183 882 q 217 769 199 828 q 307 503 249 668 q 319 469 313 486 q 400 246 356 365 q 488 469 447 364 q 510 528 499 499 q 629 881 601 772 q 660 923 636 908 q 713 931 685 938 q 755 899 740 924 q 763 847 769 875 q 639 479 733 731 q 615 419 628 450 q 508 147 567 292 q 474 61 490 103 q 464 38 468 49 q 461 31 463 33 l 460 29 q 421 -10 449 1 q 417 -11 418 -10 q 394 -14 406 -14 q 372 -10 383 -14 q 369 -8 371 -10 q 332 31 342 3 q 331 33 332 32 q 329 40 329 36 q 319 64 325 51 q 288 151 304 107 q 189 424 233 299 q 178 457 183 440 q 86 728 119 624 q 43 901 42 867 q 65 950 44 931 q 115 968 86 969 z "},"W":{"ha":1417,"x_min":22,"x_max":1417,"o":"m 154 989 l 154 986 q 157 979 156 983 q 167 951 161 967 q 199 849 182 901 q 301 540 254 681 q 317 499 310 519 q 415 222 376 322 q 442 156 431 183 q 471 213 456 178 q 561 522 510 307 q 574 576 563 525 q 599 679 586 626 q 617 753 611 732 q 671 929 647 876 q 697 976 683 958 q 722 999 708 990 q 765 1014 742 1013 q 836 971 811 1017 q 850 939 843 958 q 872 857 860 910 q 919 614 893 765 q 982 192 976 293 q 985 160 983 175 q 1078 372 1025 235 q 1217 786 1146 550 q 1263 946 1243 875 q 1276 996 1271 976 q 1279 1011 1278 1006 l 1281 1015 q 1306 1061 1283 1043 q 1356 1076 1328 1079 q 1402 1051 1385 1074 q 1417 1000 1419 1029 q 1349 746 1413 958 q 1206 324 1275 506 q 1046 7 1111 75 q 975 -32 1013 -28 q 886 10 921 -39 q 844 183 853 57 q 785 590 839 276 q 756 744 769 678 q 750 719 753 732 q 732 647 744 700 q 708 544 719 594 q 694 490 696 493 q 597 160 642 264 q 525 42 564 81 q 465 3 497 14 q 386 4 426 -10 q 353 29 368 13 q 342 44 347 36 q 325 78 335 57 q 286 174 310 113 q 186 454 247 275 q 172 497 179 475 q 68 807 124 638 q 35 908 51 860 q 26 938 31 924 q 24 944 25 942 q 22 947 24 946 q 27 1000 14 975 q 67 1034 40 1025 q 119 1030 94 1043 q 154 989 144 1017 z "},"X":{"ha":871,"x_min":13,"x_max":871,"o":"m 139 981 q 326 679 213 844 q 411 561 367 622 q 504 679 458 622 q 754 954 633 838 q 803 973 775 974 q 851 952 832 972 q 871 903 871 932 q 850 854 871 875 q 611 592 735 744 q 496 446 557 526 q 542 385 517 418 q 635 267 572 344 q 639 261 638 264 q 726 154 679 211 q 756 118 742 135 q 764 108 760 113 q 767 106 765 107 q 782 55 785 83 q 758 8 779 26 q 708 -7 736 -10 q 661 18 679 -4 l 660 18 q 658 21 660 19 q 650 31 654 25 q 621 67 636 47 q 532 175 572 125 q 528 181 531 178 q 432 303 464 260 q 410 332 421 318 q 393 308 401 321 l 378 288 q 363 268 368 275 q 176 25 247 113 q 130 -1 158 3 q 79 14 101 -4 q 54 60 57 32 q 69 111 51 89 q 251 350 138 197 q 267 369 258 358 q 282 390 271 375 q 324 446 306 421 q 214 600 264 528 q 18 917 94 774 q 13 969 4 942 q 46 1009 21 996 q 99 1014 71 1022 q 139 981 126 1006 z "},"Y":{"ha":869,"x_min":36,"x_max":869,"o":"m 857 888 q 768 743 815 828 q 681 581 735 685 q 666 549 679 575 q 650 518 653 524 q 493 236 556 332 q 293 -1 396 85 q 242 -17 271 -19 q 196 8 214 -14 q 181 58 178 31 q 206 104 183 86 q 378 310 292 176 q 431 397 404 351 q 382 424 400 400 q 324 499 360 453 q 256 582 271 563 q 143 733 186 669 q 56 899 85 822 q 36 964 43 932 q 45 1015 31 992 q 88 1045 60 1039 q 140 1037 115 1051 q 171 994 164 1022 q 185 947 175 971 q 258 808 208 885 q 364 668 297 751 l 431 586 q 490 508 468 539 q 528 581 507 540 q 542 612 529 586 q 558 642 556 638 q 647 811 613 749 q 744 967 699 901 q 790 995 761 990 q 841 983 818 1000 q 869 938 864 967 q 857 888 874 910 z "},"Z":{"ha":913,"x_min":-4,"x_max":913,"o":"m 79 958 q 211 946 133 949 q 363 944 260 944 q 407 944 392 944 q 618 938 539 946 q 819 892 736 926 q 838 881 829 888 q 841 878 839 881 q 844 875 843 876 q 867 842 860 861 q 867 801 872 821 q 840 760 860 778 q 819 743 832 751 q 801 733 811 739 l 800 733 q 636 601 754 701 q 411 403 518 500 q 194 190 271 275 q 169 161 181 175 q 478 150 254 153 q 814 149 633 147 q 825 149 818 149 q 836 149 832 149 l 842 149 l 843 149 q 892 128 872 149 q 913 80 913 108 q 893 31 913 51 q 844 11 874 11 l 843 11 l 836 11 q 826 11 833 11 q 815 11 818 11 q 475 13 632 10 q 142 28 233 15 l 136 28 q 126 28 133 28 q 96 29 110 28 q 60 33 75 31 q 38 40 47 36 q 19 50 28 44 q -4 82 3 63 q -3 150 -15 114 q 21 193 6 169 q 93 283 44 231 q 318 504 174 372 q 654 794 497 668 q 604 800 631 799 q 407 807 532 808 q 363 807 393 807 q 207 808 258 807 q 56 822 119 811 q 12 851 28 828 q 1 902 -4 874 q 28 947 6 931 q 79 958 51 963 z "},"[":{"ha":464,"x_min":85,"x_max":464,"o":"m 354 918 q 297 917 338 917 q 264 918 275 918 q 235 917 247 917 q 235 896 235 907 q 232 757 233 846 q 231 677 232 728 q 231 589 231 626 l 231 553 q 230 519 231 551 q 228 443 229 488 q 225 374 226 399 q 222 178 222 267 q 222 -69 219 22 q 225 -140 224 -112 q 282 -142 247 -142 q 336 -142 303 -142 q 403 -140 392 -140 q 449 -165 431 -143 q 464 -216 467 -187 q 440 -262 461 -244 q 390 -278 418 -281 l 389 -278 q 386 -278 388 -278 q 375 -278 378 -278 q 358 -278 369 -278 q 347 -278 357 -278 l 339 -278 q 282 -279 304 -279 q 203 -276 233 -279 q 165 -271 181 -275 q 118 -246 136 -262 q 100 -217 106 -233 q 94 -199 97 -208 q 89 -164 92 -185 q 85 -72 86 -131 q 85 179 82 21 q 88 376 85 268 q 90 447 89 403 q 92 522 92 492 l 93 554 q 94 758 94 693 q 97 900 96 849 q 99 949 97 931 q 100 965 99 958 q 101 975 100 971 q 121 1013 106 997 q 194 1049 147 1039 q 261 1054 222 1054 q 300 1054 275 1056 q 340 1054 332 1054 q 390 1040 368 1058 q 415 994 413 1022 q 401 943 418 965 q 354 918 383 921 z "},"\\":{"ha":631,"x_min":88,"x_max":628,"o":"m 214 1013 q 414 540 285 856 q 417 533 415 536 q 625 40 551 204 q 627 -12 638 14 q 591 -51 617 -39 q 539 -53 565 -62 q 500 -17 513 -43 q 289 481 425 149 q 286 488 288 485 q 89 956 158 801 q 88 1008 78 982 q 124 1047 97 1035 q 176 1048 150 1058 q 214 1013 203 1038 z "},"]":{"ha":514,"x_min":121,"x_max":514,"o":"m 121 1008 q 150 1051 126 1036 q 201 1061 174 1067 q 207 1061 204 1061 q 228 1060 214 1060 q 237 1059 229 1060 q 246 1058 244 1058 q 265 1057 257 1058 q 319 1053 299 1056 q 347 1046 336 1050 q 365 1039 357 1043 q 389 1019 379 1031 q 422 950 410 994 q 438 871 432 917 q 446 686 446 800 q 446 547 447 635 q 446 411 444 435 q 446 407 446 408 q 449 394 447 404 q 457 350 450 382 q 479 219 471 268 q 493 128 488 169 q 514 -71 513 4 q 511 -150 515 -119 q 499 -190 507 -174 q 456 -233 483 -221 q 372 -260 418 -250 q 294 -271 343 -265 q 283 -272 290 -271 q 215 -281 236 -276 q 164 -269 188 -286 q 135 -225 140 -253 q 147 -174 131 -197 q 190 -146 163 -150 q 268 -135 217 -140 q 279 -133 275 -133 q 376 -117 346 -126 q 376 -75 378 -100 q 358 108 375 -8 q 344 196 351 149 q 321 326 336 244 q 308 400 310 389 q 308 549 307 429 q 308 685 310 636 q 300 854 308 792 q 290 913 296 890 q 289 918 289 915 q 257 921 276 919 q 239 921 249 921 q 230 922 238 921 q 221 922 222 922 q 174 926 186 924 q 130 957 146 933 q 121 1008 114 981 z "},"^":{"ha":713,"x_min":96,"x_max":714,"o":"m 101 878 q 183 986 129 931 q 274 1071 218 1022 q 349 1129 326 1117 q 393 1147 371 1143 q 450 1138 424 1151 q 479 1117 465 1131 q 499 1097 488 1110 q 506 1088 499 1096 q 517 1076 514 1079 q 538 1053 528 1064 q 689 911 599 989 q 713 865 711 893 q 697 815 715 836 q 649 791 678 793 q 599 807 621 789 q 439 957 504 889 q 413 986 426 971 q 401 999 410 989 q 364 967 389 989 q 282 892 313 922 q 222 813 242 849 q 181 779 208 788 q 129 785 154 771 q 96 826 104 799 q 101 878 88 853 z "},"_":{"ha":922,"x_min":-50,"x_max":921,"o":"m 18 -79 q 178 -83 85 -78 q 344 -97 229 -87 q 422 -104 394 -101 q 646 -115 560 -115 q 838 -94 760 -115 q 890 -103 865 -87 q 921 -145 914 -118 q 913 -197 928 -172 q 871 -228 899 -222 q 647 -253 778 -251 q 411 -242 554 -253 q 332 -235 382 -239 q 168 -221 218 -224 q 21 -217 82 -215 q -28 -198 -7 -218 q -49 -149 -49 -178 q -31 -101 -50 -121 q 18 -79 -11 -81 z "},"`":{"ha":383,"x_min":124,"x_max":383,"o":"m 249 1122 q 357 996 299 1040 q 383 951 379 979 q 370 899 388 922 q 324 873 353 876 q 274 888 296 869 q 132 1050 194 947 q 124 1103 117 1075 q 155 1145 131 1131 q 207 1153 179 1160 q 249 1122 235 1146 z "},"a":{"ha":624,"x_min":10,"x_max":625,"o":"m 476 572 q 240 528 325 578 q 147 365 154 478 q 167 186 140 256 q 222 113 186 129 q 315 115 258 94 q 483 229 392 142 q 488 232 486 231 q 488 329 488 286 q 476 572 485 461 m 610 613 q 625 332 622 482 q 625 150 625 272 q 625 46 625 83 q 605 -2 625 18 q 556 -22 585 -22 q 506 -2 526 -22 q 486 46 486 18 l 488 53 q 363 -14 422 7 q 163 -11 250 -54 q 38 139 76 31 q 10 374 1 236 q 171 646 21 558 q 533 706 306 726 q 574 688 557 704 q 596 649 592 672 q 610 613 608 633 z "},"b":{"ha":750,"x_min":33,"x_max":729,"o":"m 200 736 q 218 747 208 742 q 550 758 397 846 q 659 659 613 722 q 729 515 706 596 q 718 206 778 350 q 619 72 685 125 q 464 -1 554 18 q 276 -8 411 -12 q 165 1 211 -6 q 118 11 138 6 q 69 33 88 19 q 39 88 46 51 q 35 126 36 103 q 33 231 33 164 q 47 526 36 344 q 92 1021 72 931 q 122 1064 99 1049 q 174 1073 146 1079 q 217 1043 201 1067 q 226 990 232 1019 q 200 736 218 950 m 172 139 q 185 138 178 138 q 281 129 224 132 q 436 133 399 125 q 592 258 549 157 q 597 476 632 357 q 482 639 564 593 q 286 626 396 689 q 206 547 206 582 q 183 496 206 517 q 171 228 174 332 q 172 139 171 172 z "},"c":{"ha":701,"x_min":0,"x_max":701,"o":"m 556 561 q 311 597 422 639 q 164 453 213 560 q 150 256 117 349 q 308 126 186 157 q 456 117 400 104 q 592 190 510 129 q 643 203 615 207 q 688 176 671 199 q 701 124 706 153 q 674 79 697 96 q 488 -17 568 1 q 275 -7 399 -37 q 116 72 181 17 q 21 208 51 128 q 1 358 -4 279 q 39 510 6 436 q 131 642 74 586 q 263 725 189 699 q 624 681 435 790 q 656 639 649 667 q 649 587 664 611 q 608 555 635 563 q 556 561 581 547 z "},"d":{"ha":760,"x_min":18,"x_max":760,"o":"m 582 554 q 288 561 413 639 q 194 459 229 525 q 156 308 160 393 q 203 143 150 194 q 329 89 243 101 q 461 82 375 82 l 485 82 q 599 93 561 81 q 615 101 610 97 q 618 104 618 103 q 622 143 624 114 q 617 185 621 158 q 614 211 615 194 q 613 216 613 213 q 611 222 613 219 l 611 225 q 608 239 610 233 q 603 283 606 264 q 589 454 594 340 l 589 456 q 582 554 585 522 m 572 707 q 572 758 572 729 q 572 775 572 764 q 569 889 572 851 q 561 999 568 950 q 574 1049 557 1026 q 619 1076 590 1072 q 670 1063 647 1079 q 697 1018 693 1046 q 707 894 704 963 q 710 776 708 856 q 710 760 710 765 q 717 590 711 650 q 726 464 721 547 q 726 461 726 463 q 739 300 732 353 q 744 260 742 283 q 747 246 746 254 l 747 243 q 748 237 747 240 q 749 232 749 233 q 753 204 751 215 q 760 151 758 174 q 740 40 764 83 q 640 -37 711 -15 q 485 -56 583 -57 l 463 -56 q 392 -54 417 -56 q 310 -47 347 -53 q 106 46 178 -28 q 18 315 10 140 q 76 528 25 433 q 215 678 128 624 q 572 707 374 776 z "},"e":{"ha":661,"x_min":28,"x_max":657,"o":"m 169 365 q 244 368 200 363 q 296 374 263 369 q 379 383 354 382 q 496 431 449 389 q 514 525 539 468 q 478 582 497 564 q 447 596 465 593 q 285 556 403 603 q 193 439 232 533 q 169 365 178 404 m 167 228 q 246 115 183 144 q 350 100 288 96 q 525 142 425 104 q 577 140 551 151 q 613 101 603 128 q 612 49 624 75 q 574 13 600 24 q 189 -10 335 -76 q 28 219 53 53 q 65 492 8 354 q 233 682 128 640 q 354 724 306 713 q 468 732 418 739 q 640 579 581 715 q 657 441 671 506 q 588 328 643 376 q 495 272 549 293 q 389 247 442 250 q 315 238 368 246 q 258 231 279 233 q 167 228 206 225 z "},"f":{"ha":603,"x_min":-3,"x_max":601,"o":"m 167 25 q 165 40 165 29 q 163 78 163 64 q 163 96 163 86 q 164 113 163 99 q 164 132 164 126 q 156 228 164 163 q 146 294 153 254 l 144 301 q 143 317 144 308 q 140 336 142 326 q 138 356 139 346 q 136 369 136 365 q 114 547 121 475 q 111 590 113 569 q 43 606 75 594 q 2 639 15 614 q -3 691 -11 664 q 31 731 6 718 q 82 736 56 744 q 107 731 94 733 q 122 865 108 806 q 181 1000 140 947 q 304 1088 228 1065 q 457 1096 389 1113 q 592 1000 540 1075 q 601 948 607 976 q 572 904 596 919 q 521 894 549 889 q 476 924 493 900 q 425 963 456 954 q 343 956 392 971 q 257 835 279 936 q 244 719 246 786 q 265 719 253 719 q 279 719 271 719 q 383 718 347 719 q 493 701 444 714 q 535 670 521 694 q 543 618 550 646 q 512 576 536 590 q 460 568 488 561 q 375 581 424 578 q 281 582 344 582 q 267 582 271 582 q 249 582 257 582 q 251 560 250 571 q 272 389 257 492 q 274 371 272 383 q 278 347 276 358 q 281 325 279 335 q 282 314 282 315 q 292 246 289 272 q 301 131 301 171 q 301 108 301 122 q 300 93 300 94 q 300 81 300 86 q 301 51 300 71 q 303 33 303 40 q 287 -16 306 6 q 240 -40 268 -37 q 190 -23 211 -42 q 167 25 168 -4 z "},"g":{"ha":715,"x_min":-8,"x_max":717,"o":"m 579 156 q 579 200 579 176 q 572 388 578 269 q 565 515 567 485 q 565 581 564 553 q 404 599 478 607 q 276 549 332 590 q 196 451 226 511 q 160 322 165 390 q 173 207 154 258 q 229 128 192 156 q 331 103 269 100 q 508 160 408 106 q 579 156 544 179 m 704 607 q 703 519 701 578 q 710 394 704 490 q 717 200 715 274 q 679 -132 718 -10 q 603 -265 651 -215 q 460 -339 544 -326 q 229 -334 357 -354 q 25 -271 101 -314 q -8 -229 0 -257 q -1 -177 -15 -201 q 40 -145 13 -153 q 92 -151 67 -137 q 254 -199 149 -183 q 440 -203 360 -214 q 549 -89 514 -192 q 572 39 565 -36 q 336 -35 444 -29 q 150 17 229 -39 q 49 149 82 65 q 22 333 15 233 q 75 517 31 431 q 194 658 119 603 q 394 735 282 724 q 638 701 507 747 q 675 669 663 693 q 704 607 707 647 z "},"h":{"ha":750,"x_min":22,"x_max":747,"o":"m 182 968 q 158 619 156 854 q 339 725 242 689 q 489 742 424 756 q 596 667 556 726 q 636 557 624 625 q 650 443 646 514 q 653 408 651 432 q 665 293 658 324 q 696 206 674 254 q 742 117 710 175 q 747 64 756 92 q 715 22 739 36 q 663 17 690 8 q 621 50 635 25 q 571 149 586 113 q 531 263 543 210 q 515 400 521 304 q 513 433 514 424 q 481 592 504 556 q 460 607 472 604 q 385 596 433 613 q 164 425 254 547 q 167 350 165 394 q 175 72 175 144 q 155 23 175 43 q 106 3 135 3 q 58 23 78 3 q 38 72 38 43 q 29 344 38 142 q 24 510 25 447 q 22 772 18 665 q 49 1000 28 911 q 78 1042 54 1028 q 131 1051 103 1057 q 174 1020 158 1044 q 182 968 189 996 z "},"i":{"ha":240,"x_min":36,"x_max":240,"o":"m 200 1043 q 233 1000 226 1029 q 240 938 242 964 q 218 875 239 900 q 147 844 190 842 q 93 864 118 846 q 46 954 49 897 q 106 1063 42 1021 q 156 1072 129 1078 q 200 1043 183 1065 m 200 633 l 200 632 q 199 625 200 628 q 196 597 197 613 q 186 504 190 551 q 174 293 176 389 q 185 63 169 143 q 174 11 190 35 q 130 -17 158 -12 q 78 -6 101 -22 q 50 38 54 10 q 36 296 32 132 q 50 517 39 397 q 60 614 54 565 q 63 642 61 628 q 64 649 63 646 q 64 651 64 650 q 90 697 68 679 q 141 710 113 714 q 187 685 169 707 q 200 633 204 663 z "},"j":{"ha":286,"x_min":-246,"x_max":276,"o":"m 200 1043 q 233 1000 226 1029 q 240 938 242 964 q 218 875 239 900 q 147 844 190 842 q 93 864 118 846 q 46 954 49 897 q 106 1063 42 1021 q 156 1072 129 1078 q 200 1043 183 1065 m 233 693 q 276 0 311 269 q 126 -335 244 -243 q -1 -378 67 -379 q -126 -332 -68 -376 q -210 -227 -179 -293 q -246 -83 -242 -161 q -228 -34 -247 -56 q -181 -11 -210 -12 q -131 -28 -153 -10 q -108 -76 -110 -47 q -43 -224 -103 -176 q 42 -225 1 -257 q 97 -149 72 -201 q 140 18 126 -83 q 99 668 172 267 q 109 719 93 696 q 153 748 125 743 q 205 737 182 753 q 233 693 228 721 z "},"k":{"ha":651,"x_min":31,"x_max":653,"o":"m 233 996 q 199 749 208 888 q 189 506 192 658 q 347 596 242 543 q 353 599 349 597 q 361 603 357 601 q 367 606 365 606 q 463 657 431 639 q 538 711 508 685 q 588 727 560 729 q 635 704 617 725 q 652 655 654 683 q 629 607 650 626 q 532 539 590 572 q 428 483 496 518 l 424 481 q 415 477 419 479 q 410 474 411 475 q 397 468 404 471 q 410 451 403 460 l 414 444 q 426 430 419 439 q 439 411 432 421 q 453 392 446 401 q 463 378 460 383 q 543 253 515 306 q 597 47 607 136 q 572 1 594 19 q 522 -13 550 -17 q 475 13 493 -10 q 460 63 457 35 q 422 186 465 108 q 351 299 399 232 q 338 316 347 304 q 321 340 329 328 q 306 361 313 351 l 299 371 q 278 400 286 388 q 268 393 272 397 q 185 313 213 354 q 183 261 185 288 q 167 60 178 149 q 142 15 164 32 q 91 1 119 -3 q 45 26 63 4 q 31 78 28 49 q 46 267 42 160 q 50 463 49 331 q 51 493 51 482 q 61 760 54 663 q 100 1026 72 908 q 131 1069 107 1054 q 183 1078 156 1085 q 225 1047 210 1071 q 233 996 240 1022 z "},"l":{"ha":213,"x_min":63,"x_max":213,"o":"m 210 1011 q 199 522 188 829 q 204 407 200 483 q 213 85 213 190 q 192 37 213 57 q 144 17 172 17 q 95 37 115 17 q 75 85 75 57 q 67 401 75 188 q 63 518 64 478 q 72 1026 50 835 q 99 1072 76 1054 q 149 1087 121 1090 q 195 1061 178 1083 q 210 1011 213 1039 z "},"m":{"ha":946,"x_min":56,"x_max":947,"o":"m 767 617 q 761 614 764 615 q 736 596 750 607 q 668 531 713 576 q 661 525 665 528 q 596 460 617 479 q 568 444 583 449 q 568 360 569 406 q 544 -10 567 139 q 519 -55 542 -37 q 467 -68 496 -72 q 422 -41 439 -64 q 408 10 406 -18 q 431 361 429 150 q 422 557 432 485 q 414 600 419 583 l 389 588 q 217 449 279 533 q 194 428 208 436 q 193 382 193 399 q 193 183 189 253 q 213 56 197 93 q 213 4 224 31 q 176 -34 203 -22 q 124 -35 150 -46 q 86 1 97 -24 q 56 176 61 61 q 56 386 51 251 q 57 438 56 404 q 61 583 61 540 q 57 696 61 656 q 71 746 53 724 q 117 772 89 768 q 168 757 146 775 q 193 711 190 739 q 199 626 197 676 q 328 711 257 676 q 332 713 329 711 q 333 714 333 713 l 335 714 q 339 717 338 715 q 356 725 349 721 q 383 736 371 732 q 422 746 404 743 q 479 736 454 750 q 519 701 503 725 q 539 663 531 685 q 553 611 547 640 q 563 621 557 615 q 569 628 567 625 q 649 701 619 678 q 746 754 701 746 q 871 707 821 769 q 925 564 907 661 q 947 281 946 450 q 946 136 947 231 q 946 35 946 67 q 926 -15 946 6 q 877 -35 906 -35 q 828 -15 849 -35 q 808 35 808 6 q 808 138 808 68 q 810 279 810 232 q 789 540 808 436 q 767 617 779 594 z "},"n":{"ha":671,"x_min":35,"x_max":671,"o":"m 172 718 l 172 717 q 172 714 172 715 q 174 711 172 713 q 174 692 174 703 q 178 628 176 661 q 288 699 232 669 q 424 740 363 736 q 565 678 517 746 q 629 529 610 617 q 646 372 644 463 q 646 246 647 328 q 646 117 643 151 q 651 75 647 92 q 656 64 654 69 q 658 61 657 61 q 671 9 675 38 q 644 -36 667 -19 q 592 -49 621 -53 q 547 -22 564 -44 q 508 106 515 22 q 508 249 506 147 q 508 368 510 328 q 454 597 504 526 q 449 601 451 600 q 432 603 443 604 q 350 576 400 601 q 258 517 304 553 q 207 468 219 486 q 188 450 199 457 q 190 403 189 426 q 193 346 192 374 q 208 -7 208 64 q 188 -56 208 -36 q 140 -76 168 -76 q 91 -56 111 -76 q 71 -7 71 -36 q 56 339 71 60 q 53 396 54 367 q 40 614 47 499 q 36 685 39 651 q 36 703 36 694 q 35 708 36 706 l 35 710 q 52 760 33 739 q 99 783 71 781 q 149 766 128 785 q 172 718 171 747 z "},"o":{"ha":694,"x_min":31,"x_max":693,"o":"m 383 603 q 265 547 319 596 q 165 365 189 478 q 185 175 140 254 q 347 79 232 92 q 494 131 440 69 q 556 299 549 192 q 524 488 564 404 q 424 578 485 565 q 383 603 399 582 m 518 688 q 646 549 599 646 q 693 288 704 431 q 599 40 682 136 q 333 -57 497 -75 q 65 108 146 -37 q 31 394 -4 233 q 174 650 64 551 q 464 736 300 764 q 518 688 506 729 z "},"p":{"ha":706,"x_min":63,"x_max":701,"o":"m 200 185 q 258 192 228 201 q 471 214 383 150 q 565 379 549 272 q 526 549 582 485 q 329 601 464 621 q 251 588 276 594 q 207 572 224 581 q 201 497 204 539 q 200 200 197 385 q 200 185 200 192 m 221 722 q 271 732 243 728 q 293 735 281 733 l 310 738 q 631 639 519 768 q 695 511 676 585 q 701 358 714 438 q 650 214 689 281 q 551 103 611 147 q 215 61 408 -1 q 203 67 208 63 q 204 -4 203 35 q 206 -43 204 -21 l 206 -61 q 207 -81 206 -74 q 208 -149 207 -122 q 210 -257 210 -221 q 190 -306 210 -286 q 141 -326 169 -326 q 92 -306 113 -326 q 72 -257 72 -286 q 67 -8 72 -217 q 63 199 64 115 q 65 503 60 386 q 68 556 65 532 q 63 585 63 569 q 75 629 64 608 q 94 718 82 686 q 132 756 106 744 q 185 756 158 767 q 221 722 208 746 z "},"q":{"ha":646,"x_min":28,"x_max":646,"o":"m 464 217 q 465 285 464 246 q 467 344 465 325 q 476 617 469 514 q 454 615 464 617 q 364 600 401 613 q 224 469 283 572 q 164 250 151 343 q 228 149 174 182 q 350 135 283 117 q 464 217 419 151 m 614 625 q 604 342 607 519 q 603 282 603 322 q 590 -64 597 51 q 592 -122 590 -85 q 593 -137 593 -132 q 585 -250 596 -201 q 553 -292 578 -278 q 501 -301 529 -307 q 459 -270 474 -294 q 451 -218 444 -246 q 456 -144 458 -189 q 454 -131 456 -140 q 454 -56 451 -85 q 458 31 456 -12 q 385 1 424 11 q 158 31 263 -31 q 28 231 46 97 q 106 539 8 371 q 319 731 190 686 q 446 753 374 749 q 581 753 494 756 q 628 731 608 751 q 646 681 647 710 q 614 625 644 644 z "},"r":{"ha":629,"x_min":44,"x_max":628,"o":"m 188 508 q 197 31 171 271 q 183 -21 200 1 q 137 -46 165 -43 q 86 -31 108 -49 q 61 15 64 -14 q 44 364 42 182 q 71 694 47 546 q 99 739 75 722 q 150 750 122 756 q 190 729 174 747 q 207 689 206 711 q 247 703 226 697 q 451 732 339 733 q 574 681 526 732 q 624 576 611 640 q 628 475 633 528 q 604 386 622 422 q 565 351 592 360 q 512 353 538 342 q 477 392 486 365 q 481 446 468 419 q 490 489 488 460 q 489 550 494 522 q 474 586 483 575 q 450 594 465 594 q 290 573 360 596 q 189 510 219 550 q 188 508 189 508 z "},"s":{"ha":661,"x_min":28,"x_max":661,"o":"m 446 496 q 435 561 440 517 q 432 586 433 579 q 422 642 428 622 q 404 640 414 642 q 283 593 347 629 q 181 508 215 554 q 160 433 150 468 l 163 432 q 192 419 171 425 q 324 403 226 410 q 346 401 339 403 q 446 392 408 397 q 543 367 503 383 q 661 186 665 314 q 624 100 660 139 q 557 49 599 71 q 389 -7 489 13 q 219 -22 296 -25 q 147 -12 176 -21 q 111 4 126 -6 q 76 42 88 19 q 73 94 64 67 q 107 133 82 121 q 150 140 128 144 q 189 119 172 136 q 225 115 201 115 q 363 128 285 113 q 492 169 443 144 q 522 192 513 182 l 524 193 q 516 221 524 211 q 489 239 508 231 q 336 265 449 257 q 314 267 331 265 q 233 272 261 269 q 156 286 188 278 q 81 321 110 299 q 28 397 40 350 q 69 590 0 496 q 215 713 122 660 q 379 775 300 761 q 457 778 424 783 q 499 763 481 774 q 536 724 524 749 q 558 661 550 697 q 569 603 564 638 q 572 578 569 596 q 579 525 576 540 q 571 473 586 497 q 528 442 556 449 q 476 452 500 436 q 446 496 451 468 z "},"t":{"ha":586,"x_min":10,"x_max":586,"o":"m 336 946 q 333 915 336 939 q 328 864 331 890 q 325 835 325 838 q 317 760 321 794 q 324 760 321 760 l 326 760 q 425 760 392 760 q 526 753 481 758 q 572 727 554 750 q 585 676 589 704 q 560 631 582 649 q 510 617 538 613 q 328 622 451 624 l 326 622 q 303 621 314 622 q 293 506 297 560 q 278 224 279 332 q 279 122 276 161 q 283 90 281 103 q 285 82 283 85 l 285 79 q 287 27 297 54 q 251 -11 276 0 q 198 -12 225 -22 q 160 24 171 -3 q 140 226 138 74 q 156 517 142 339 q 165 624 160 568 q 63 639 110 628 q 19 668 35 644 q 10 719 4 692 q 40 763 17 747 q 92 772 64 779 q 179 761 131 764 q 188 849 183 801 q 191 878 189 853 q 196 928 193 904 q 200 960 199 953 q 225 1006 203 988 q 275 1021 247 1024 q 321 996 303 1018 q 336 946 339 974 z "},"u":{"ha":583,"x_min":3,"x_max":579,"o":"m 154 679 q 140 515 142 603 q 156 324 139 407 q 210 182 174 229 q 300 136 246 136 q 333 139 315 136 q 408 154 367 143 q 431 161 419 158 q 426 243 429 188 q 421 367 422 319 q 421 575 417 492 q 451 747 428 688 q 488 785 461 774 q 540 787 514 797 q 578 750 567 776 q 579 697 589 724 q 558 567 564 658 q 558 371 554 490 q 564 250 560 325 q 571 50 571 97 q 551 2 571 22 q 503 -18 531 -18 q 440 21 460 -18 q 350 3 392 7 q 300 -1 324 -1 q 101 97 178 -1 q 19 297 44 171 q 3 517 1 396 q 18 700 4 615 q 46 746 22 729 q 97 758 69 763 q 142 730 125 753 q 154 679 158 707 z "},"v":{"ha":621,"x_min":39,"x_max":618,"o":"m 169 728 q 208 581 190 663 q 238 435 219 531 q 239 426 239 428 q 263 307 254 349 q 269 267 267 290 q 357 411 313 329 q 488 697 447 576 q 522 738 497 725 q 574 741 547 750 q 615 707 601 732 q 618 654 628 682 q 476 344 574 521 q 285 64 371 150 q 256 46 272 51 q 203 50 228 38 q 175 74 186 57 q 165 89 169 81 q 157 121 161 101 l 157 122 l 157 124 q 156 129 156 128 q 138 219 144 163 q 136 229 136 222 q 128 278 132 264 q 104 400 119 321 q 103 408 103 404 q 74 550 85 504 q 39 686 57 626 q 44 739 31 714 q 84 772 57 764 q 136 767 111 781 q 169 728 161 754 z "},"w":{"ha":913,"x_min":54,"x_max":911,"o":"m 192 688 q 194 547 190 647 q 217 311 201 411 q 244 182 229 228 q 347 404 290 251 q 406 581 390 515 q 426 649 396 621 q 481 672 449 674 q 526 652 507 671 q 547 608 546 633 q 571 538 560 581 q 596 411 582 496 q 599 394 597 404 q 600 390 600 393 q 600 386 600 388 q 601 376 601 381 q 608 342 606 356 q 658 147 632 200 q 672 125 665 133 q 681 119 676 121 q 682 118 681 118 l 683 118 l 685 119 q 701 179 693 140 q 733 375 717 244 l 749 494 q 764 599 758 561 q 778 669 771 644 q 811 710 786 696 q 863 716 836 724 q 904 683 890 708 q 911 632 918 658 q 900 576 906 614 q 886 476 894 542 q 871 357 874 385 q 836 149 853 219 q 811 67 824 97 q 792 31 803 44 q 750 -4 774 6 q 617 -3 678 -35 q 536 85 568 22 q 497 197 514 129 q 472 319 485 244 q 469 336 471 328 q 354 97 406 172 q 314 50 335 68 q 254 21 286 26 q 185 35 218 15 q 144 75 161 49 q 81 292 103 136 q 58 542 65 399 q 54 692 53 646 q 76 740 56 721 q 126 758 97 760 q 174 736 154 757 q 192 688 193 715 z "},"x":{"ha":736,"x_min":25,"x_max":738,"o":"m 354 474 q 569 722 485 633 q 617 744 589 743 q 667 726 646 746 q 688 678 688 707 q 669 629 689 650 q 450 375 583 538 q 606 219 518 307 q 638 188 611 214 q 688 138 664 161 q 717 108 713 114 q 738 60 738 89 q 717 12 738 32 q 669 -8 697 -8 q 619 11 640 -8 q 592 40 615 17 q 542 90 568 64 q 510 121 515 117 q 364 267 428 203 q 274 144 308 196 q 232 78 246 104 q 224 60 226 67 q 203 14 222 33 q 155 -6 183 -6 q 106 15 126 -6 q 86 63 86 35 q 111 142 86 94 q 160 221 128 175 q 267 365 201 282 q 33 628 65 571 q 26 680 18 653 q 58 722 33 707 q 110 729 82 736 q 151 697 138 722 q 354 474 175 657 z "},"y":{"ha":736,"x_min":17,"x_max":736,"o":"m 729 646 q 567 343 671 544 l 558 326 q 550 310 553 315 q 383 -3 446 106 q 322 -96 364 -36 q 321 -100 321 -99 q 250 -217 268 -175 q 211 -252 238 -242 q 158 -251 185 -262 q 122 -212 132 -239 q 124 -160 113 -186 q 164 -86 140 -125 q 207 -21 179 -62 q 210 -18 208 -21 q 264 65 247 36 q 278 89 271 76 q 260 108 267 97 q 17 646 81 400 q 24 698 10 674 q 67 729 39 722 q 119 722 94 736 q 150 679 143 707 q 350 224 203 475 q 428 372 381 281 q 436 389 431 379 q 444 406 443 403 q 608 714 550 610 q 650 747 622 739 q 703 740 678 754 q 735 698 728 725 q 729 646 743 671 z "},"z":{"ha":717,"x_min":15,"x_max":718,"o":"m 142 722 l 217 722 l 538 722 q 631 711 600 722 q 656 700 644 707 q 681 672 671 689 q 682 596 701 635 q 654 563 672 578 q 626 540 643 551 q 558 499 603 524 q 192 194 335 371 q 199 193 194 194 q 372 185 264 186 q 558 186 449 185 q 587 187 565 186 q 611 188 608 188 q 649 188 638 188 q 698 167 678 188 q 718 119 718 147 q 698 70 718 90 q 649 50 678 50 q 614 50 639 50 q 590 49 611 50 q 561 49 568 49 q 371 47 449 47 q 183 57 256 49 q 107 69 138 63 q 38 106 61 82 q 15 160 15 128 q 22 193 15 176 q 42 229 28 210 q 54 244 47 238 q 71 265 61 254 q 74 269 72 267 l 76 271 q 78 274 78 272 q 435 585 225 456 l 217 585 l 142 585 q 92 605 113 585 q 72 653 72 625 q 92 702 72 682 q 142 722 113 722 z "},"{":{"ha":483,"x_min":14,"x_max":483,"o":"m 461 997 q 417 968 442 979 q 382 956 404 963 q 360 946 364 951 q 276 800 303 889 q 257 711 265 763 q 244 614 253 681 q 244 611 244 613 q 215 431 231 492 q 172 375 207 394 q 168 372 169 374 q 175 360 171 367 l 175 358 q 197 315 192 326 q 214 275 211 289 q 235 151 225 236 q 236 140 236 147 l 238 133 q 238 128 238 131 q 242 104 240 114 q 247 57 244 78 q 296 -111 265 -58 q 392 -165 329 -165 q 441 -185 421 -165 q 461 -234 461 -206 q 441 -283 461 -262 q 392 -303 421 -303 q 179 -182 251 -303 q 111 36 133 -106 q 104 88 108 58 q 101 111 103 97 q 101 117 101 114 l 100 122 q 99 135 99 131 q 82 238 89 208 q 81 240 82 239 q 75 254 79 246 q 54 293 69 264 l 53 294 q 28 344 35 328 q 18 368 21 358 q 14 383 15 376 q 14 418 10 401 q 57 475 24 454 q 89 490 69 485 q 108 626 97 533 q 108 629 108 628 q 121 733 115 699 q 144 839 131 793 q 263 1043 181 961 q 308 1075 283 1064 q 344 1089 322 1082 q 368 1099 364 1093 q 417 1117 389 1118 q 465 1094 446 1115 q 483 1044 485 1072 q 461 997 482 1015 z "},"|":{"ha":228,"x_min":60,"x_max":225,"o":"m 215 1121 q 197 368 160 758 q 200 296 199 349 q 203 195 201 285 q 207 82 206 106 q 215 -93 211 -29 q 221 -156 218 -132 q 224 -176 222 -168 q 225 -182 224 -179 l 225 -183 q 221 -235 233 -210 q 181 -270 208 -261 q 128 -266 154 -279 q 94 -226 103 -253 q 69 76 78 -178 q 67 191 69 101 q 63 292 64 281 q 60 354 61 340 q 79 1142 21 763 q 106 1186 83 1169 q 158 1199 129 1203 q 203 1172 186 1194 q 215 1121 219 1149 z "},"}":{"ha":428,"x_min":33,"x_max":424,"o":"m 139 1128 q 160 1115 147 1122 q 172 1108 163 1114 q 182 1101 182 1103 q 254 1053 229 1075 q 318 968 296 1017 q 353 835 347 908 q 351 710 357 785 q 349 676 350 699 q 342 581 342 611 q 347 507 342 535 l 349 506 q 354 496 350 503 q 376 464 361 485 q 378 461 376 463 q 390 442 379 458 q 404 422 401 426 q 414 408 410 413 q 418 400 417 404 q 422 392 421 396 q 424 344 432 369 q 390 275 415 317 l 389 275 q 367 225 369 240 q 365 133 361 190 q 368 93 365 119 q 372 -6 372 26 q 356 -111 371 -67 q 164 -276 314 -232 q 111 -271 136 -285 q 78 -230 86 -257 q 83 -178 69 -203 q 125 -144 97 -153 q 197 -108 172 -131 q 225 -67 217 -92 q 235 -3 233 -42 q 231 83 235 24 q 228 125 228 111 q 231 246 224 197 q 249 304 235 275 q 272 346 257 319 q 281 360 278 354 q 265 383 265 381 q 263 386 264 385 q 238 422 246 408 q 217 464 221 449 q 204 581 204 515 q 211 689 204 618 q 214 721 213 710 q 217 824 219 785 q 194 910 213 872 q 167 946 185 931 q 113 983 150 961 l 108 986 q 97 992 103 989 q 90 997 92 996 q 65 1013 75 1006 q 34 1054 40 1026 q 43 1106 28 1082 q 86 1137 58 1131 q 139 1128 114 1143 z "},"~":{"ha":785,"x_min":51,"x_max":785,"o":"m 72 514 q 307 614 185 626 q 404 582 354 608 q 481 535 436 567 q 493 526 483 533 q 504 518 503 519 q 526 503 518 508 q 560 485 547 489 q 569 482 565 482 q 572 481 571 481 l 574 482 q 578 485 575 482 q 619 544 592 496 q 638 576 631 564 q 658 610 650 597 q 660 613 660 611 q 705 640 676 635 q 756 628 733 644 q 784 584 779 613 q 772 533 789 556 l 772 532 q 757 507 765 522 q 754 504 756 507 q 751 499 753 501 q 748 492 750 496 q 744 486 746 489 q 742 481 743 483 q 739 478 740 479 l 739 476 q 707 425 721 444 q 663 376 686 394 q 508 357 594 322 q 450 389 482 367 q 425 406 440 396 q 413 414 424 407 q 401 424 403 421 q 292 476 331 472 q 242 469 267 479 q 169 417 207 456 q 120 397 149 397 q 72 417 92 397 q 51 466 51 438 q 72 514 51 494 z "},"":{"ha":371,"x_min":15,"x_max":371,"o":"m 197 992 q 200 994 199 993 q 271 1009 235 1014 q 332 976 307 1004 q 371 881 364 940 q 358 783 376 828 q 328 735 347 754 q 265 704 301 708 q 157 733 199 694 q 115 835 115 771 q 138 924 115 881 q 197 992 161 968 m 269 574 q 265 558 268 567 q 258 468 260 531 q 253 374 257 407 q 243 311 249 343 q 193 75 228 226 q 150 -124 161 -64 q 121 -167 144 -151 q 69 -178 97 -183 q 26 -149 42 -172 q 15 -97 10 -125 q 60 106 26 -36 q 107 335 93 254 q 117 393 113 365 q 121 471 119 418 q 131 586 124 546 q 138 611 133 599 q 169 651 144 638 q 222 658 194 665 q 263 626 249 650 q 269 574 278 601 z "},"":{"ha":653,"x_min":57,"x_max":651,"o":"m 547 719 q 383 785 456 779 q 286 760 328 789 q 222 674 246 731 q 194 550 197 618 q 213 429 193 483 q 269 349 233 375 q 360 329 306 322 q 525 400 432 338 q 576 411 549 417 q 620 382 604 406 q 631 331 636 358 q 603 288 626 303 q 444 207 521 231 q 446 136 446 179 q 446 119 446 131 q 444 76 444 88 q 424 27 444 47 q 376 7 404 7 q 327 27 347 7 q 307 76 307 47 q 308 121 307 92 q 308 138 308 132 q 308 192 308 169 q 189 236 242 199 q 88 369 122 283 q 57 554 54 454 q 99 739 60 654 q 207 871 139 824 q 349 922 269 917 q 353 957 350 938 q 358 976 356 965 q 361 985 360 979 q 362 989 361 986 q 363 993 363 992 q 368 1014 367 1006 q 398 1057 374 1042 q 450 1066 422 1072 q 493 1035 478 1060 q 503 983 508 1011 q 496 956 500 972 q 488 928 489 935 q 488 901 485 913 q 622 835 553 879 q 651 790 646 818 q 642 739 657 763 q 599 710 626 715 q 547 719 571 704 z "},"":{"ha":826,"x_min":-71,"x_max":826,"o":"m 675 894 q 599 929 639 921 q 494 933 558 938 q 293 800 365 925 q 235 654 258 740 q 314 657 272 656 q 551 658 393 658 l 571 658 q 619 639 599 658 q 639 590 639 619 q 619 542 639 561 q 571 522 599 522 l 551 522 q 318 519 394 522 q 207 515 258 518 q 203 486 206 501 q 190 299 193 403 q 188 179 189 247 q 211 181 199 179 q 406 194 283 185 q 751 225 639 213 q 801 210 779 228 q 826 163 824 192 q 811 113 829 135 q 765 88 793 90 q 417 57 653 76 q 218 43 293 47 q 150 40 175 40 q 126 40 136 40 q 90 47 106 40 q 57 81 68 58 q 50 113 50 94 q 50 125 50 118 l 50 133 q 53 303 50 240 q 67 503 56 413 q 8 496 36 500 q -44 508 -21 492 q -71 553 -67 525 q -58 605 -75 582 q -12 632 -40 628 q 90 644 38 639 q 174 869 121 776 q 485 1071 283 1057 q 622 1065 565 1076 q 756 1006 694 1050 q 783 961 779 989 q 771 910 788 933 q 726 883 754 888 q 675 894 699 878 z "},"":{"ha":801,"x_min":47,"x_max":797,"o":"m 439 690 q 368 679 400 693 q 292 600 317 658 q 285 494 268 544 q 343 440 300 451 q 451 457 399 426 q 528 538 501 485 q 539 618 550 585 q 524 639 535 631 q 483 657 510 651 q 439 690 454 664 m 636 406 q 638 403 636 404 q 640 396 638 399 q 692 338 654 372 q 742 296 708 324 q 767 249 764 278 q 753 199 771 221 q 706 174 735 176 q 656 189 678 171 q 600 235 618 218 q 521 328 546 285 q 517 335 518 332 q 310 307 418 281 q 217 356 256 321 q 175 306 186 332 q 138 269 164 279 q 85 270 111 258 q 48 308 58 282 q 49 361 38 335 q 106 440 68 404 q 149 475 124 458 q 165 653 128 564 q 186 694 175 675 q 181 703 183 699 q 69 899 103 811 q 72 951 60 925 q 110 987 83 976 q 163 985 136 997 q 199 947 189 974 q 285 792 224 881 q 315 807 300 800 q 561 800 426 853 q 564 801 563 801 q 601 829 578 810 q 606 832 604 831 q 608 835 607 832 l 610 835 q 653 867 638 856 q 706 896 681 885 q 758 897 732 907 q 796 860 785 886 q 797 807 807 833 q 760 769 786 781 q 693 725 738 760 q 689 723 692 725 q 685 719 686 721 q 654 696 665 704 q 669 661 664 679 q 650 478 699 575 q 625 433 639 454 q 636 406 633 421 z "},"":{"ha":808,"x_min":7,"x_max":807,"o":"m 138 338 q 254 326 175 333 q 317 321 290 324 q 368 449 342 388 q 335 481 346 458 q 329 490 332 486 q 175 503 247 499 q 128 526 147 504 q 110 576 108 547 q 133 623 111 604 q 182 640 154 642 q 256 636 218 639 q 168 781 210 721 q 119 846 154 803 l 118 846 q 117 849 118 847 q 114 851 115 850 q 54 932 74 901 q 7 1033 21 983 q 13 1086 -1 1061 q 55 1119 28 1111 q 107 1112 82 1126 q 139 1071 132 1097 q 169 1006 147 1040 q 221 939 185 982 q 224 936 221 938 l 225 933 l 225 932 q 283 858 264 886 q 401 654 336 778 q 419 618 411 635 q 442 615 429 617 q 682 1049 554 856 q 726 1078 699 1072 q 778 1067 754 1083 q 807 1024 801 1051 q 797 972 813 996 q 585 596 685 804 q 696 582 650 588 q 742 557 724 579 q 756 506 760 535 q 731 460 753 478 q 681 446 708 442 q 525 465 625 451 q 457 304 490 388 q 472 301 465 303 q 617 261 550 286 q 655 226 643 251 q 657 173 667 200 q 622 134 647 146 q 568 132 596 122 q 447 165 513 153 q 407 172 426 169 q 340 -17 374 82 q 306 -57 332 -44 q 253 -60 281 -69 q 214 -26 226 -51 q 210 26 201 0 q 267 188 238 110 q 244 189 256 189 q 122 200 163 196 q 76 225 94 203 q 61 276 58 247 q 86 322 64 304 q 138 338 108 340 z "},"":{"ha":192,"x_min":15,"x_max":192,"o":"m 161 1107 q 153 906 146 1022 q 178 696 157 817 q 166 644 182 667 q 122 616 150 621 q 70 628 93 611 q 42 672 47 644 q 15 897 21 801 q 26 1132 7 1032 q 56 1176 32 1160 q 107 1187 79 1192 q 151 1158 135 1182 q 161 1107 167 1135 m 192 488 q 189 449 190 472 q 187 429 189 447 q 185 407 185 411 q 172 250 175 308 q 183 14 165 103 q 173 -38 189 -14 q 129 -68 157 -62 q 78 -58 101 -74 q 49 -14 54 -42 q 35 257 28 93 q 47 419 39 318 q 50 442 49 425 q 51 461 51 460 q 56 500 54 485 q 80 547 58 529 q 130 563 101 565 q 176 538 158 560 q 192 488 194 517 z "},"":{"ha":719,"x_min":-3,"x_max":718,"o":"m 615 957 q 469 1008 560 992 q 303 1015 378 1025 q 199 971 228 1004 q 183 935 186 956 q 188 874 178 908 q 190 868 189 871 q 201 856 196 863 q 271 811 226 832 q 365 774 301 796 q 372 772 368 774 l 375 771 l 378 769 q 474 733 442 749 q 568 679 529 710 q 672 457 669 599 q 656 371 672 410 q 622 322 643 342 q 663 246 653 289 q 643 106 676 183 q 542 -21 610 26 q 381 -79 474 -68 q 192 -62 288 -92 q 31 7 128 -44 q -3 48 6 21 q 2 100 -11 75 q 42 134 15 125 q 94 129 69 143 q 232 68 181 83 q 363 57 299 49 q 517 158 481 72 q 528 217 532 197 q 513 238 526 228 q 449 265 492 251 q 349 288 418 274 q 345 289 349 289 q 342 290 342 289 q 333 292 336 290 q 215 321 257 307 q 104 375 146 342 q 32 490 46 421 q 53 646 18 558 q 103 732 74 697 q 117 749 108 740 q 106 757 111 753 q 81 785 92 771 q 57 832 63 810 q 96 1061 18 972 q 283 1151 158 1133 q 497 1144 382 1165 q 688 1075 611 1122 q 718 1032 711 1060 q 710 980 725 1004 q 668 949 696 956 q 615 957 640 943 m 239 667 q 181 596 206 657 q 167 515 161 544 q 189 483 171 497 q 257 451 211 465 q 361 426 292 440 q 369 425 364 425 q 376 422 376 424 q 488 397 451 407 q 496 394 492 396 q 528 421 507 413 l 528 422 q 529 425 529 424 q 535 453 535 438 q 482 572 533 532 q 418 608 458 590 q 333 640 392 619 l 331 642 q 326 642 328 642 q 321 644 324 643 q 247 671 274 660 q 239 667 243 668 z "},"":{"ha":656,"x_min":57,"x_max":656,"o":"m 129 1101 q 188 1133 149 1133 q 283 1086 250 1133 q 304 1000 308 1050 q 275 919 300 956 q 211 868 250 883 q 97 883 146 842 q 57 975 57 917 q 88 1064 57 1025 q 129 1101 104 1086 m 438 1089 q 462 1124 443 1110 q 503 1138 481 1138 q 574 1116 539 1138 q 631 1061 608 1094 q 656 982 657 1022 q 606 890 654 924 q 496 874 556 857 q 417 931 446 889 q 401 1040 379 983 q 438 1089 413 1068 z "},"":{"ha":915,"x_min":8,"x_max":911,"o":"m 638 889 q 499 892 569 906 q 254 749 358 865 q 146 499 150 632 q 260 260 140 358 q 344 219 292 232 q 456 207 383 211 q 681 285 597 197 q 775 501 757 364 q 750 742 790 629 q 638 889 710 854 m 683 1019 q 861 929 778 994 q 888 884 885 913 q 874 833 892 856 q 865 824 869 828 q 875 800 871 813 q 911 485 932 651 q 781 189 889 301 q 447 69 651 57 q 313 86 364 74 q 171 154 228 107 q 8 504 0 296 q 151 840 15 686 q 474 1028 288 993 q 661 1025 569 1044 q 682 1019 672 1025 l 683 1019 m 597 697 q 410 671 486 721 q 338 560 347 629 q 376 454 329 496 q 585 410 443 397 q 635 394 613 413 q 659 347 657 375 q 643 297 661 319 q 596 274 625 275 q 288 350 397 256 q 215 453 238 393 q 201 578 192 513 q 244 694 210 640 q 335 785 279 749 q 626 831 458 867 q 670 801 654 825 q 680 750 686 778 q 650 706 674 722 q 597 697 626 690 z "},"":{"ha":549,"x_min":75,"x_max":547,"o":"m 406 986 q 322 997 358 1000 q 256 971 282 993 q 220 910 232 949 q 213 826 208 871 q 233 758 217 786 q 256 735 244 738 q 265 735 260 733 q 290 746 276 736 q 383 846 333 772 q 401 865 390 858 q 406 986 401 940 m 543 983 q 540 819 538 935 q 543 740 542 788 q 544 715 543 736 q 546 690 544 694 q 547 647 546 664 q 528 599 547 619 q 480 577 508 578 q 431 596 451 576 q 410 644 410 615 q 408 664 410 653 q 364 629 386 643 q 217 603 289 582 q 114 689 153 622 q 75 814 82 743 q 91 958 68 889 q 164 1072 114 1026 q 311 1133 225 1128 q 507 1094 400 1140 q 544 1057 533 1083 q 543 1004 554 1031 q 543 1001 543 1003 q 543 983 544 993 z "},"":{"ha":760,"x_min":56,"x_max":757,"o":"m 451 696 q 392 657 424 683 q 328 596 369 638 q 314 583 317 586 q 301 571 307 576 q 228 507 258 529 q 194 476 206 489 q 192 474 193 475 q 197 468 194 471 q 240 431 208 454 q 257 417 243 428 q 272 406 271 407 q 308 378 293 390 q 419 258 381 319 q 430 207 436 235 q 399 163 424 179 q 347 153 375 147 q 304 183 319 160 q 222 271 278 226 q 189 297 208 282 l 175 308 q 157 321 161 318 q 96 375 115 353 q 63 426 72 400 q 56 497 47 461 q 144 617 68 558 q 206 671 168 635 q 218 682 211 675 l 231 694 q 304 763 276 739 q 392 821 350 800 q 444 823 418 832 q 483 788 471 814 q 486 735 496 763 q 451 696 476 708 m 722 640 q 617 556 683 619 q 609 549 615 556 q 595 536 603 543 q 585 526 588 529 q 551 497 565 508 q 531 478 546 492 q 553 460 544 465 q 625 386 579 436 l 626 385 q 706 308 678 331 q 731 263 728 292 q 717 213 735 235 q 672 187 700 190 q 621 200 643 183 q 526 292 585 229 q 525 293 525 292 q 461 356 483 336 l 408 400 q 386 422 394 413 q 365 474 367 446 q 382 528 364 503 q 406 553 390 539 q 433 576 410 556 q 463 600 456 596 q 490 626 474 611 q 501 636 493 629 q 515 649 508 643 q 522 656 521 656 q 585 713 560 692 q 660 763 624 743 q 712 767 685 775 q 752 733 739 758 q 757 681 765 708 q 722 640 749 654 z "},"":{"ha":625,"x_min":14,"x_max":625,"o":"m 64 565 q 182 581 117 579 q 290 578 218 581 q 324 575 313 576 q 401 575 351 575 q 490 572 464 576 q 582 532 549 565 q 625 428 621 494 q 611 293 628 376 q 582 249 606 265 q 531 239 558 233 q 487 268 503 244 q 476 321 471 292 q 488 419 490 386 q 486 433 488 428 q 474 436 481 435 q 403 438 456 438 q 318 439 350 438 q 283 440 306 439 q 185 443 217 443 q 97 432 136 442 q 45 440 69 425 q 14 482 21 454 q 22 534 7 510 q 64 565 36 558 z "},"":{"ha":989,"x_min":-19,"x_max":990,"o":"m 357 711 q 356 693 356 703 q 357 633 354 668 q 542 679 468 647 q 568 693 557 686 q 364 711 500 713 q 357 711 361 711 m 640 983 q 404 982 517 1019 q 193 814 275 939 q 118 550 113 690 q 228 297 124 401 q 331 249 260 265 q 490 236 403 232 q 656 266 581 240 q 769 329 732 292 q 821 438 796 356 q 853 632 851 535 q 815 815 853 742 q 688 921 775 893 q 653 944 667 926 q 640 983 640 961 m 806 1019 q 938 879 890 969 q 990 631 992 775 q 953 399 989 514 q 867 233 917 283 q 711 139 810 174 q 497 99 613 104 q 296 115 389 93 q 131 200 189 142 q -19 544 -11 343 q 78 889 -28 729 q 361 1113 186 1054 q 765 1082 557 1178 q 806 1019 806 1064 m 246 343 q 242 392 246 357 q 238 428 242 396 q 232 469 233 461 q 224 553 228 517 q 218 699 217 643 q 226 764 219 738 q 258 829 236 806 q 294 851 274 844 q 325 854 308 856 q 356 850 336 854 l 357 850 q 364 849 363 849 q 625 819 536 850 q 704 769 678 801 q 725 671 742 725 q 674 599 714 632 q 597 554 643 575 q 551 536 575 544 q 611 468 571 508 q 628 453 613 467 q 658 424 643 439 q 679 403 674 408 q 699 353 699 382 q 678 305 699 325 q 628 285 657 285 q 581 307 600 286 q 544 342 574 314 q 514 371 515 371 q 432 465 460 425 q 410 501 419 485 q 374 497 392 499 q 368 496 371 497 q 369 485 368 492 q 374 444 369 476 q 378 407 378 411 q 383 350 383 367 q 365 300 385 321 q 317 278 346 279 q 268 296 289 276 q 246 343 247 315 z "},"":{"ha":556,"x_min":42,"x_max":557,"o":"m 442 1118 q 456 1110 449 1114 q 557 911 554 1025 q 486 731 558 811 q 319 640 417 654 q 122 701 207 624 q 42 876 44 772 q 93 1046 40 965 q 232 1154 149 1125 q 421 1138 329 1189 q 442 1118 433 1131 m 353 1018 q 276 1025 315 1039 q 207 968 236 1011 q 179 879 178 925 q 214 803 181 835 q 300 776 251 769 q 383 824 347 783 q 419 910 419 863 q 367 1004 418 960 q 356 1017 360 1010 q 353 1018 354 1017 z "},"":{"ha":628,"x_min":-31,"x_max":628,"o":"m 82 532 q 221 525 143 526 q 257 525 239 525 q 275 685 261 613 q 305 728 281 713 q 357 738 329 743 q 400 708 385 732 q 410 656 415 685 q 394 525 397 599 q 563 522 499 525 q 610 500 590 521 q 628 451 629 479 q 606 403 626 422 q 556 385 585 383 q 393 388 496 388 q 394 349 393 374 q 394 253 394 285 q 375 203 394 224 q 326 183 356 183 q 278 203 297 183 q 258 253 258 224 q 257 346 258 283 q 256 388 256 372 q 218 388 238 388 q 68 396 135 389 q 22 420 40 399 q 7 470 4 442 q 31 517 10 499 q 82 532 53 535 m 38 38 q 218 47 99 39 q 243 49 235 47 q 526 54 422 60 q 573 31 554 51 q 590 -19 592 10 q 567 -66 589 -47 q 518 -83 546 -85 q 253 -89 424 -78 q 228 -90 244 -89 q 40 -100 104 -99 q -8 -81 13 -100 q -30 -33 -29 -61 q -10 17 -31 -4 q 38 38 10 38 z "},"":{"ha":511,"x_min":46,"x_max":513,"o":"m 135 1057 q 376 1161 238 1175 q 472 1119 436 1154 q 513 1025 508 1085 q 463 900 517 958 q 365 824 431 867 q 340 807 356 817 l 335 803 q 324 797 329 800 q 315 792 318 793 q 225 726 253 751 q 304 728 256 728 q 321 728 310 728 q 424 729 390 728 q 474 713 453 732 q 497 665 494 693 q 480 615 499 636 q 432 592 461 594 q 319 590 394 590 q 303 590 308 590 q 225 589 253 590 q 218 588 224 589 l 208 586 q 197 583 201 585 q 178 581 186 582 q 128 578 147 576 q 92 585 107 578 q 63 607 75 593 q 46 651 47 626 q 115 813 43 739 q 242 908 156 853 q 250 913 244 910 q 261 919 256 917 l 267 924 q 290 939 281 932 q 361 993 342 972 q 375 1017 375 1008 q 374 1022 375 1019 q 363 1024 369 1024 q 298 1015 326 1028 q 240 967 269 1001 q 192 943 221 946 q 142 959 164 940 q 119 1006 121 978 q 135 1057 117 1035 z "},"":{"ha":518,"x_min":57,"x_max":507,"o":"m 93 1122 q 264 1163 175 1158 q 372 1146 329 1167 q 449 1038 442 1114 q 404 924 454 975 q 381 901 393 913 q 507 815 478 868 q 496 703 538 757 q 429 650 474 674 q 271 596 365 617 q 201 585 232 588 q 169 585 183 583 q 151 588 160 586 q 122 601 135 592 q 95 647 99 618 q 108 697 92 675 q 179 722 135 733 l 182 722 q 190 722 186 722 q 242 731 211 724 q 351 765 306 744 q 251 796 314 781 q 226 799 244 797 q 165 808 188 801 q 142 821 153 813 q 114 869 118 839 q 128 918 111 896 q 143 935 133 928 q 175 951 156 943 q 186 956 181 953 q 192 958 188 956 l 197 960 q 204 963 203 961 q 232 975 225 971 q 260 989 249 982 q 306 1019 292 1004 q 310 1024 308 1021 q 272 1026 296 1028 q 150 996 207 1022 q 97 995 124 985 q 59 1031 71 1006 q 58 1083 47 1057 q 93 1122 68 1110 z "},"":{"ha":446,"x_min":61,"x_max":442,"o":"m 407 978 q 346 933 379 965 q 279 860 322 910 l 275 856 q 267 847 271 851 q 261 839 263 842 q 243 818 251 826 q 176 749 206 775 q 126 733 154 731 q 78 756 97 735 q 62 806 60 778 q 86 853 64 833 q 140 908 107 872 q 157 928 147 917 q 163 935 158 931 q 169 944 167 940 l 174 949 q 251 1033 221 1004 q 347 1103 300 1081 q 401 1106 374 1115 q 440 1070 428 1096 q 442 1017 451 1044 q 407 978 432 990 z "},"":{"ha":754,"x_min":53,"x_max":753,"o":"m 715 681 q 714 582 713 667 q 722 385 715 497 q 753 61 738 122 q 746 9 760 33 q 704 -22 732 -15 q 651 -15 676 -29 q 619 26 626 -1 q 601 151 611 61 q 491 51 556 92 q 356 0 426 11 q 194 22 265 -14 q 190 -135 190 -60 q 170 -183 190 -162 q 122 -203 150 -203 q 73 -183 93 -203 q 53 -135 53 -162 q 69 224 53 -15 q 76 328 74 293 q 82 697 90 554 q 99 747 81 726 q 147 770 118 768 q 197 753 175 772 q 219 706 218 733 q 214 319 228 554 q 208 246 211 289 q 211 233 210 239 q 250 150 217 172 q 333 136 282 128 q 449 190 396 146 q 526 296 503 235 q 550 328 533 315 q 586 340 567 340 q 585 376 586 358 q 576 579 578 492 q 581 711 574 681 q 612 754 588 739 q 664 763 636 769 q 706 733 692 757 q 715 681 721 708 z "},"":{"ha":899,"x_min":39,"x_max":894,"o":"m 658 982 q 658 806 651 925 q 658 803 658 804 q 661 649 664 700 q 633 381 657 558 q 619 271 624 307 q 610 -46 597 78 q 594 -97 613 -75 q 549 -122 576 -119 q 499 -107 521 -125 q 474 -60 476 -89 q 483 286 460 79 q 490 346 486 314 q 165 396 292 307 q 66 517 99 443 q 39 676 33 590 q 83 833 43 758 q 192 963 124 908 q 579 1058 346 1086 q 599 1058 589 1060 q 644 1033 626 1056 q 658 982 663 1011 m 894 958 q 867 669 853 854 q 875 574 868 638 q 888 410 886 463 q 883 174 889 331 l 883 172 q 881 4 881 60 q 860 -44 881 -24 q 812 -64 840 -64 q 763 -44 783 -64 q 743 4 743 -24 q 747 178 743 63 q 750 406 751 331 q 738 561 749 454 q 729 660 732 625 q 728 833 722 760 q 765 1008 735 931 q 802 1047 776 1035 q 855 1048 828 1058 q 893 1011 882 1038 q 894 958 904 985 z "},"":{"ha":285,"x_min":75,"x_max":285,"o":"m 232 572 q 256 557 244 567 q 285 493 285 531 q 265 438 285 463 q 233 410 251 421 q 156 392 194 388 q 99 419 121 396 q 75 479 76 443 q 75 511 74 499 q 89 550 78 532 q 104 572 94 561 q 113 581 107 575 l 115 583 q 119 588 118 586 q 167 610 139 610 q 217 592 196 611 q 232 572 226 583 z "},"":{"ha":622,"x_min":208,"x_max":624,"o":"m 360 111 q 592 -60 532 29 q 623 -161 625 -110 q 585 -251 621 -212 q 419 -317 526 -314 q 235 -257 314 -318 q 209 -210 213 -239 q 224 -160 206 -182 q 269 -134 242 -137 q 321 -149 297 -131 q 417 -179 360 -181 q 483 -158 465 -178 l 486 -156 q 485 -150 486 -153 q 478 -136 483 -144 q 300 -14 439 -79 q 265 25 275 -1 q 267 78 256 51 q 306 114 279 104 q 360 111 333 124 z "},"":{"ha":349,"x_min":32,"x_max":349,"o":"m 69 1093 q 167 1160 133 1138 q 196 1178 186 1172 q 210 1185 204 1182 q 228 1190 219 1189 q 257 1189 243 1193 q 308 1138 299 1179 q 314 1004 321 1079 q 296 875 311 956 q 292 854 294 868 q 276 765 281 793 q 272 742 274 753 q 281 742 276 743 q 328 722 308 742 q 349 674 349 703 q 328 625 349 644 q 281 606 308 606 q 231 603 264 606 q 217 603 222 603 q 83 611 133 600 q 41 642 56 618 q 33 694 26 667 q 63 737 39 722 q 115 744 88 751 q 135 742 125 743 q 140 785 136 761 q 157 881 144 815 q 160 900 158 893 q 176 1000 172 964 q 147 981 163 990 q 97 969 125 964 q 52 998 68 975 q 41 1049 36 1021 q 69 1093 46 1078 z "},"":{"ha":663,"x_min":-21,"x_max":663,"o":"m 106 731 q 146 669 125 699 q 258 556 193 608 q 274 542 263 551 q 297 526 286 533 q 307 517 307 518 q 351 476 336 494 q 385 392 385 438 q 353 303 385 350 q 156 101 311 242 q 106 83 135 82 q 59 106 78 85 q 42 155 40 126 q 64 203 43 183 q 239 379 207 332 q 244 390 242 385 q 222 410 238 397 l 215 414 q 201 426 208 419 q 185 438 193 432 q 172 449 176 444 q 36 586 93 513 q -12 661 10 621 q -21 713 -28 685 q 11 755 -14 740 q 63 763 36 769 q 106 731 90 756 m 301 747 q 315 748 301 747 q 351 731 329 749 q 406 688 372 713 q 417 678 410 685 q 432 667 425 672 q 444 656 439 661 l 451 651 q 550 572 514 604 q 640 479 604 525 q 663 406 664 447 q 646 346 661 376 q 579 257 626 307 q 542 217 564 239 q 526 203 539 215 q 501 177 514 190 q 483 158 488 164 q 463 138 471 146 q 456 128 457 131 q 413 96 440 103 q 361 103 386 89 q 329 144 336 117 q 336 197 322 172 q 385 256 350 219 q 403 274 389 260 q 430 300 417 288 q 444 314 443 313 q 478 350 464 335 q 522 406 511 385 q 458 469 496 436 q 368 543 426 499 l 361 547 q 349 558 356 553 q 333 569 342 564 q 322 578 325 575 q 263 625 286 606 q 238 672 240 644 q 254 722 236 700 q 301 747 272 744 z "},"":{"ha":706,"x_min":46,"x_max":707,"o":"m 383 194 q 386 281 385 233 q 335 228 354 251 q 317 204 324 215 q 322 203 319 204 q 383 194 346 197 m 208 1013 q 204 1064 196 1038 q 236 1103 213 1090 l 238 1103 q 240 1106 238 1104 q 251 1111 243 1107 q 285 1132 272 1125 q 288 1133 286 1132 q 325 1156 311 1147 q 342 1164 336 1161 q 356 1168 350 1167 q 376 1171 367 1171 q 403 1165 390 1171 q 438 1131 426 1154 q 456 1029 456 1090 q 450 929 457 990 q 446 894 449 917 q 438 825 439 844 q 447 828 442 826 q 499 822 475 836 q 531 780 524 807 q 525 728 539 753 q 483 696 511 703 q 347 675 421 678 q 218 676 297 672 q 170 699 189 678 q 153 749 151 721 q 175 797 154 778 q 225 814 196 815 q 299 811 269 811 q 308 913 300 836 q 313 946 311 933 q 317 992 315 971 q 300 982 303 982 q 248 977 275 968 q 208 1013 221 986 m 114 644 q 267 642 165 644 q 322 640 304 640 q 629 650 515 636 q 680 637 657 654 q 706 591 703 619 q 692 540 710 563 q 646 514 675 518 q 319 503 524 499 q 264 504 301 503 q 114 507 164 507 q 66 527 86 507 q 46 576 46 547 q 66 624 46 604 q 114 644 86 644 m 526 371 q 526 340 526 363 q 524 303 525 313 q 521 194 522 239 q 522 147 521 168 q 526 124 526 136 q 524 108 526 115 q 525 94 525 100 q 531 60 528 74 q 533 49 532 53 q 535 47 533 47 q 541 -6 549 22 q 508 -47 533 -33 q 456 -53 483 -61 q 415 -21 429 -46 q 392 57 399 7 q 290 69 331 60 q 224 97 250 79 q 175 167 185 124 q 185 249 165 206 q 229 317 199 281 q 404 475 285 382 q 455 490 426 493 q 501 464 483 486 q 515 413 519 440 q 526 371 528 393 z "},"":{"ha":706,"x_min":46,"x_max":707,"o":"m 208 1013 q 204 1064 196 1038 q 236 1103 213 1090 l 238 1103 q 240 1106 238 1104 q 251 1111 243 1107 q 285 1132 272 1125 q 288 1133 286 1132 q 325 1156 311 1147 q 342 1164 336 1161 q 356 1168 350 1167 q 376 1171 367 1171 q 403 1165 390 1171 q 438 1131 426 1154 q 456 1029 456 1090 q 450 929 457 990 q 446 894 449 917 q 438 825 439 844 q 447 828 442 826 q 499 822 475 836 q 531 780 524 807 q 525 728 539 753 q 483 696 511 703 q 347 675 421 678 q 218 676 297 672 q 170 699 189 678 q 153 749 151 721 q 175 797 154 778 q 225 814 196 815 q 299 811 269 811 q 308 913 300 836 q 313 946 311 933 q 317 992 315 971 q 300 982 303 982 q 248 977 275 968 q 208 1013 221 986 m 114 644 q 267 642 165 644 q 322 640 304 640 q 629 650 515 636 q 680 637 657 654 q 706 591 703 619 q 692 540 710 563 q 646 514 675 518 q 319 503 524 499 q 264 504 301 503 q 114 507 164 507 q 66 527 86 507 q 46 576 46 547 q 66 624 46 604 q 114 644 86 644 m 183 354 q 263 446 203 413 q 389 472 324 479 q 504 403 467 464 q 518 246 544 339 q 489 196 510 218 q 451 165 474 179 q 418 149 436 157 q 446 151 440 150 q 481 153 469 153 q 528 133 508 153 q 549 84 549 113 q 528 35 549 56 q 481 15 508 15 q 474 15 479 15 q 460 14 468 15 q 447 13 456 14 q 428 10 438 11 q 418 10 419 10 q 382 6 397 7 q 306 3 335 3 q 267 8 283 4 q 243 17 254 11 q 215 38 226 24 q 189 128 185 72 q 229 214 193 185 q 307 253 254 232 q 319 257 310 253 q 331 261 329 261 q 381 283 367 275 q 386 288 383 285 q 390 319 392 306 q 388 331 390 326 q 375 335 386 335 q 333 326 354 338 q 313 308 317 318 q 277 269 303 282 q 225 266 251 257 q 186 301 199 275 q 183 354 174 326 z "},"":{"ha":706,"x_min":46,"x_max":707,"o":"m 383 194 q 386 281 385 233 q 335 228 354 251 q 317 204 324 215 q 322 203 319 204 q 383 194 346 197 m 114 644 q 267 642 165 644 q 322 640 304 640 q 629 650 515 636 q 680 637 657 654 q 706 591 703 619 q 692 540 710 563 q 646 514 675 518 q 319 503 524 499 q 264 504 301 503 q 114 507 164 507 q 66 527 86 507 q 46 576 46 547 q 66 624 46 604 q 114 644 86 644 m 526 371 q 526 340 526 363 q 524 303 525 313 q 521 194 522 239 q 522 147 521 168 q 526 124 526 136 q 524 108 526 115 q 525 94 525 100 q 531 60 528 74 q 533 49 532 53 q 535 47 533 47 q 541 -6 549 22 q 508 -47 533 -33 q 456 -53 483 -61 q 415 -21 429 -46 q 392 57 399 7 q 290 69 331 60 q 224 97 250 79 q 175 167 185 124 q 185 249 165 206 q 229 317 199 281 q 404 475 285 382 q 455 490 426 493 q 501 464 483 486 q 515 413 519 440 q 526 371 528 393 m 196 1125 q 396 1142 292 1160 q 475 1115 446 1133 q 524 1033 522 1085 q 499 964 524 999 q 461 922 485 944 q 447 910 454 917 q 471 892 461 901 q 503 844 496 871 q 478 761 515 796 q 351 693 428 717 q 224 669 292 674 q 174 687 196 668 q 151 734 153 706 q 169 784 150 763 q 215 807 188 806 q 314 825 268 810 q 290 842 299 833 q 271 868 278 853 q 275 933 257 901 q 311 975 288 953 q 329 992 319 982 q 336 997 332 993 q 344 1003 340 1000 q 349 1007 347 1007 l 350 1008 q 242 996 293 1014 q 190 998 215 986 q 154 1037 164 1010 q 157 1090 144 1064 q 196 1125 169 1115 z "},"":{"ha":785,"x_min":-11,"x_max":785,"o":"m 617 1049 q 635 1053 625 1051 q 699 1043 667 1057 q 779 965 760 1017 q 785 907 786 943 q 778 860 783 879 q 735 794 767 822 q 661 758 703 767 q 579 765 618 750 q 511 832 533 785 q 524 979 478 906 q 617 1049 558 1035 m 618 596 q 615 586 617 590 q 608 567 611 575 q 585 513 594 532 q 569 490 578 500 q 535 464 554 472 q 482 458 510 454 q 444 468 465 461 q 413 482 432 474 l 410 483 q 403 485 407 483 q 396 490 400 488 q 388 493 392 492 q 382 496 385 494 q 298 522 331 518 q 235 508 265 525 q 224 500 229 506 q 118 378 143 443 q 129 260 94 317 q 329 100 208 129 q 588 129 442 74 q 640 128 614 140 q 676 90 665 117 q 675 38 686 64 q 636 1 664 13 q 296 -33 450 -71 q 13 189 119 10 q -11 425 -57 303 q 143 613 28 531 q 167 628 154 621 q 319 657 238 668 q 438 621 371 650 l 469 607 q 475 604 472 606 q 479 614 476 608 q 485 632 482 621 l 488 640 q 492 650 490 646 q 504 682 499 672 q 550 717 519 710 l 551 718 l 553 718 l 554 718 l 556 718 l 557 718 l 558 718 l 560 718 l 561 718 l 563 718 l 564 719 l 565 719 l 567 719 l 568 718 l 569 718 l 571 718 l 572 718 l 574 718 l 575 718 l 578 718 l 579 718 l 581 717 l 582 717 l 583 717 l 585 717 q 597 711 592 714 q 631 670 622 697 q 626 618 639 643 q 625 615 626 617 q 621 603 624 611 q 618 596 619 600 z "},"":{"ha":232,"x_min":42,"x_max":229,"o":"m 178 1029 q 193 942 171 996 q 204 914 196 935 q 229 849 222 874 q 224 796 238 821 q 183 763 211 771 q 131 767 156 754 q 97 808 106 781 q 78 861 92 826 q 65 890 68 883 q 43 964 49 932 q 42 1053 35 1010 q 69 1097 46 1081 q 121 1109 93 1114 q 165 1081 149 1104 q 178 1029 182 1057 z "},"":{"ha":185,"x_min":40,"x_max":185,"o":"m 185 1047 q 182 904 186 997 q 182 901 182 903 q 178 804 178 836 q 158 755 178 775 q 109 735 138 735 q 60 755 81 735 q 40 804 40 775 q 44 908 40 840 q 44 911 44 910 q 47 1042 49 997 q 65 1092 46 1071 q 112 1114 83 1113 q 162 1096 140 1115 q 185 1047 183 1076 z "},"":{"ha":488,"x_min":19,"x_max":483,"o":"m 153 1017 q 217 826 185 899 q 217 774 228 800 q 181 736 207 747 q 128 735 156 725 q 90 771 101 746 q 19 979 56 853 q 26 1032 13 1007 q 67 1065 40 1057 q 119 1058 94 1072 q 153 1017 144 1044 m 372 1018 q 429 903 383 979 l 431 901 q 482 808 467 842 q 483 755 493 782 q 448 717 474 728 q 395 715 422 706 q 356 751 368 725 q 313 829 344 776 q 311 832 313 831 q 272 900 285 876 q 240 981 250 943 q 246 1033 232 1008 q 288 1066 260 1058 q 340 1059 315 1074 q 372 1018 365 1044 z "},"":{"ha":496,"x_min":85,"x_max":496,"o":"m 236 957 q 224 875 226 919 q 222 785 222 844 q 202 735 222 756 q 153 715 182 715 q 105 735 125 715 q 85 785 85 756 q 88 883 85 849 q 101 988 90 938 q 131 1031 107 1015 q 183 1040 156 1046 q 226 1009 211 1033 q 236 957 242 985 m 496 976 q 476 779 481 875 q 454 731 475 750 q 405 713 433 711 q 357 735 376 714 q 339 785 338 757 q 360 996 344 888 q 387 1041 364 1024 q 438 1054 410 1058 q 483 1027 465 1050 q 496 976 500 1004 z "},"":{"ha":901,"x_min":6,"x_max":901,"o":"m 776 785 q 685 833 756 815 q 543 850 629 847 q 435 838 479 853 q 349 785 390 822 q 583 768 461 782 q 630 743 613 765 q 644 693 647 721 q 619 647 642 665 q 569 632 597 629 q 250 649 399 650 q 225 494 219 576 q 235 429 226 463 q 279 438 254 433 q 576 461 447 464 q 625 440 606 461 q 644 391 644 419 q 623 343 643 363 q 574 324 603 324 q 300 301 457 326 q 290 300 294 300 q 317 263 303 281 q 503 146 399 163 q 718 225 617 129 q 767 244 739 244 q 815 222 796 243 q 834 173 835 201 q 813 125 833 144 q 482 11 663 -17 q 210 176 325 35 q 146 274 174 221 q 86 264 110 268 q 35 275 58 258 q 6 319 11 292 q 18 371 1 347 q 63 399 35 394 q 99 406 79 401 q 88 486 90 446 q 103 642 82 567 q 56 660 76 642 q 35 706 36 678 q 51 755 32 733 q 97 779 69 776 q 167 783 132 782 q 199 825 182 806 q 356 953 275 915 q 547 988 436 992 q 718 967 649 985 q 811 932 772 953 q 890 861 863 903 q 901 810 907 838 q 872 766 896 782 q 819 756 847 750 q 776 785 792 761 z "},"":{"ha":1389,"x_min":0,"x_max":0,"o":""},"":{"ha":417,"x_min":0,"x_max":0,"o":""}}}
